<?xml version="1.0" standalone="no"?>
<!DOCTYPE svg PUBLIC "-//W3C//DTD SVG 20010904//EN"
 "http://www.w3.org/TR/2001/REC-SVG-20010904/DTD/svg10.dtd">
<svg version="1.0" xmlns="http://www.w3.org/2000/svg"
 width="1570.000000pt" height="1570.000000pt" viewBox="0 0 1570.000000 1570.000000"
 preserveAspectRatio="xMidYMid meet">
<metadata>
Created by potrace 1.11, written by Peter Selinger 2001-2013
</metadata>
<g transform="translate(0.000000,1570.000000) scale(0.100000,-0.100000)"
fill="#000000" stroke="none">
<path d="M7863 15582 c-28 -32 -60 -73 -71 -91 l-20 -33 -17 29 c-9 15 -38 42
-65 60 -45 30 -49 31 -64 14 -8 -9 -31 -50 -49 -91 -32 -69 -35 -85 -40 -200
-7 -152 -17 -184 -67 -210 -51 -26 -138 -123 -145 -163 -4 -18 0 -50 9 -74
l15 -42 -136 -72 c-205 -108 -456 -249 -476 -267 -28 -25 -16 -75 49 -208 83
-172 209 -328 299 -371 35 -17 35 -17 29 -69 -12 -95 45 -170 144 -192 54 -13
78 -6 121 31 65 56 151 77 151 37 0 -67 -60 -131 -173 -186 -93 -45 -167 -117
-167 -162 0 -16 -3 -50 -6 -76 -6 -41 -11 -49 -44 -66 -44 -23 -102 -84 -131
-141 -35 -69 -70 -225 -76 -342 -3 -59 -11 -114 -18 -123 -14 -20 -95 -30
-124 -15 -11 7 -21 18 -21 27 0 86 -187 240 -362 298 -94 32 -121 32 -178 4
-35 -18 -50 -34 -70 -74 -16 -35 -35 -58 -58 -70 -73 -39 -131 -135 -132 -216
0 -41 5 -54 36 -87 41 -46 125 -91 168 -91 l31 1 -25 20 c-75 63 -81 169 -9
169 79 0 249 -164 281 -271 10 -34 9 -41 -14 -68 -29 -34 -44 -93 -29 -118 7
-13 20 -17 50 -14 56 4 122 -30 153 -77 27 -41 85 -189 117 -297 12 -38 25
-76 30 -83 12 -20 102 -47 253 -77 216 -42 203 -32 120 -88 -50 -33 -82 -47
-106 -47 -64 0 -231 50 -333 99 -174 85 -287 171 -356 271 -122 179 -297 314
-473 366 -70 21 -183 22 -276 5 -73 -14 -85 -25 -40 -36 43 -11 125 -54 155
-83 38 -36 80 -120 106 -213 26 -93 26 -103 4 -94 -10 3 -65 20 -123 37 -207
60 -303 128 -407 290 -37 59 -71 108 -74 108 -9 0 -49 -94 -66 -155 -8 -27
-17 -105 -20 -173 -10 -207 23 -281 202 -450 47 -45 112 -97 145 -118 33 -20
60 -41 60 -46 0 -17 -89 -49 -155 -55 -87 -8 -145 14 -186 69 -27 38 -84 88
-100 88 -3 0 -9 -19 -12 -43 -3 -24 -11 -56 -16 -71 -23 -60 -156 -75 -208
-24 -36 36 -46 94 -27 159 32 112 35 103 -31 94 -86 -10 -102 -19 -174 -95
-54 -56 -75 -71 -114 -81 -53 -13 -132 -8 -150 10 -20 20 -11 87 17 135 l27
46 -63 -6 c-160 -15 -257 -53 -347 -138 -94 -87 -86 -86 -110 -13 -12 35 -35
85 -51 110 l-29 46 -118 -40 c-65 -21 -149 -57 -186 -79 l-69 -40 -81 47
c-193 109 -247 165 -247 253 0 22 -5 40 -10 40 -6 0 -43 -33 -83 -72 -80 -80
-97 -116 -97 -209 1 -77 26 -123 114 -209 96 -93 111 -137 65 -186 -33 -35
-90 -50 -128 -34 -47 19 -139 123 -170 192 -109 241 -131 421 -85 688 34 194
100 324 233 459 81 82 123 96 265 89 107 -6 149 -22 209 -78 56 -51 77 -94 77
-158 0 -96 -41 -153 -127 -178 -29 -9 -53 -21 -53 -28 0 -7 10 -28 23 -47 34
-51 98 -70 217 -66 89 3 100 6 177 45 46 23 85 42 88 42 2 0 13 -17 24 -39 23
-44 97 -113 156 -145 34 -18 56 -21 151 -21 l112 0 125 62 c101 51 139 76 195
130 86 84 121 139 172 268 44 113 70 242 70 347 0 142 -64 379 -150 560 -60
125 -142 220 -298 344 -87 69 -127 92 -255 149 -211 94 -328 119 -567 119
-195 1 -258 -8 -420 -61 -159 -51 -410 -192 -586 -328 -111 -86 -263 -267
-323 -385 -54 -105 -110 -270 -137 -400 -22 -112 -15 -374 16 -540 24 -130 74
-289 120 -379 36 -72 29 -81 -46 -62 -105 27 -184 87 -269 205 -22 30 -53 63
-70 73 -28 17 -152 73 -162 73 -2 0 25 -28 61 -62 78 -76 80 -83 101 -318 16
-184 25 -231 57 -293 11 -22 18 -40 16 -42 -2 -1 -46 4 -98 13 -62 10 -162 16
-285 16 -162 0 -203 -3 -277 -22 -178 -44 -348 -129 -485 -242 -128 -106 -227
-285 -275 -494 -28 -119 -29 -361 -4 -481 37 -170 123 -321 271 -472 74 -75
105 -99 170 -130 l80 -38 158 -4 c186 -4 329 11 400 41 199 86 370 353 369
574 -1 99 -35 211 -117 381 -58 121 -98 185 -158 250 l-38 41 58 22 c81 31
139 22 256 -36 89 -45 337 -184 337 -189 0 -1 -25 -19 -55 -39 -31 -20 -58
-43 -61 -50 -3 -8 25 -44 65 -85 68 -69 161 -189 161 -208 0 -5 -21 -19 -46
-31 -46 -23 -144 -107 -144 -124 0 -6 34 -46 75 -90 74 -79 136 -184 150 -255
6 -29 3 -33 -27 -49 -53 -27 -245 -160 -348 -242 -129 -103 -441 -417 -522
-526 -239 -321 -376 -825 -354 -1301 15 -310 128 -669 283 -900 33 -49 76
-119 96 -155 l35 -65 -66 -51 c-46 -35 -74 -65 -92 -99 -24 -48 -25 -55 -25
-255 -1 -198 -2 -207 -27 -275 -15 -38 -25 -71 -23 -74 3 -2 44 11 91 29 79
30 93 32 157 26 39 -4 72 -8 74 -9 1 -2 -9 -48 -23 -103 -31 -124 -34 -233 -9
-332 17 -65 17 -73 3 -89 -51 -58 -82 -174 -76 -277 6 -92 43 -163 111 -218
54 -42 73 -48 57 -18 -23 43 13 75 160 138 145 62 325 152 406 203 71 45 94
83 94 153 l0 46 61 -32 c54 -28 72 -33 138 -33 89 0 154 21 196 65 l28 29 -42
41 c-53 51 -74 99 -74 167 0 66 35 123 93 153 72 37 90 102 56 206 -6 20 -4
21 41 13 80 -13 244 -10 313 6 36 9 118 32 183 52 64 20 120 33 124 30 8 -9
-22 -108 -52 -167 -27 -53 -109 -134 -189 -185 -31 -19 -56 -39 -56 -44 0 -10
88 -38 145 -47 22 -3 73 1 114 10 41 9 77 14 79 11 2 -2 -6 -22 -19 -44 -22
-41 -56 -68 -137 -114 l-43 -24 48 -31 c101 -64 152 -68 237 -17 53 32 57 33
50 12 -13 -44 -33 -74 -73 -110 -23 -20 -41 -39 -41 -41 0 -2 20 -12 45 -22
36 -13 62 -16 130 -10 l85 6 -21 -41 c-21 -42 -23 -101 -4 -158 l8 -24 -89 6
c-67 5 -135 20 -273 62 -242 73 -436 108 -601 109 -114 1 -130 -1 -180 -25
-153 -72 -215 -203 -208 -439 4 -141 15 -166 153 -355 52 -71 95 -132 95 -135
0 -4 -16 -12 -35 -19 -54 -19 -129 -98 -148 -156 -43 -130 -35 -197 33 -269
l49 -52 -29 -18 c-46 -27 -60 -64 -60 -158 0 -63 5 -93 20 -122 l19 -39 -50
-56 c-144 -161 -150 -332 -21 -588 18 -34 36 -91 42 -130 11 -74 47 -173 62
-173 14 0 69 30 105 58 18 13 51 51 72 83 l40 59 88 -67 c48 -37 107 -82 131
-100 64 -49 70 -46 65 40 l-5 72 77 155 c65 130 79 167 87 229 16 128 -14 264
-69 314 -19 17 -46 42 -59 54 -31 28 -30 57 2 128 36 78 31 156 -13 217 l-31
43 29 35 c34 40 59 115 59 175 0 54 -18 154 -32 183 -15 29 -63 58 -110 67
-23 4 -43 16 -52 31 -18 27 -21 25 65 53 84 27 170 79 186 111 8 15 13 66 13
130 0 127 14 156 89 195 28 14 55 25 60 25 6 0 18 -14 26 -31 14 -25 15 -49
10 -127 -8 -112 1 -157 46 -225 46 -69 101 -109 159 -115 l48 -4 -18 52 c-16
47 -16 59 -5 97 7 24 25 59 39 77 14 19 111 91 215 161 209 139 293 217 354
327 48 85 90 195 117 302 20 80 22 107 17 250 -6 181 -17 236 -78 363 -57 120
-147 248 -238 337 l-80 80 172 175 c207 211 252 270 328 425 85 176 117 315
159 694 19 174 20 209 10 374 -6 101 -18 219 -25 263 -42 240 -137 412 -355
639 -192 199 -335 268 -613 296 -253 25 -461 -46 -573 -197 -141 -187 -179
-276 -172 -407 5 -101 31 -157 108 -235 80 -81 146 -114 240 -119 108 -6 155
9 216 72 52 53 89 117 100 174 l7 33 -46 -22 c-45 -22 -48 -22 -82 -6 -34 16
-35 19 -35 70 0 41 6 63 29 98 64 100 121 126 235 110 66 -9 90 -19 139 -55
24 -17 57 -63 57 -79 0 -2 -20 -12 -45 -22 -30 -11 -51 -27 -60 -45 -8 -16
-15 -31 -15 -33 0 -2 18 -7 41 -10 58 -8 130 -47 156 -86 26 -39 22 -51 -14
-51 -44 0 -174 -40 -235 -72 -56 -30 -138 -93 -138 -106 0 -4 55 -7 123 -8
103 0 131 -4 182 -24 104 -40 147 -96 169 -217 l5 -33 -62 47 c-89 66 -153 93
-255 105 -152 20 -260 -20 -343 -124 -47 -59 -119 -167 -119 -179 0 -4 24 2
52 14 90 35 263 25 353 -21 58 -29 223 -161 244 -195 24 -39 26 -65 9 -102
-15 -34 -28 -32 -69 11 -72 76 -204 115 -315 95 -74 -14 -189 -69 -236 -115
-57 -56 -74 -155 -38 -227 19 -37 40 -45 40 -14 0 7 13 27 29 44 25 26 36 31
76 31 62 0 104 -21 158 -79 35 -37 47 -60 56 -102 18 -87 16 -218 -3 -263 -21
-47 -66 -116 -76 -116 -5 0 -16 22 -26 49 -30 85 -110 180 -192 229 -39 24
-76 41 -81 38 -5 -3 -12 -48 -16 -99 -10 -135 -49 -204 -170 -309 -124 -107
-167 -128 -270 -128 -89 0 -207 28 -234 55 -15 15 -14 18 9 36 114 92 207 182
243 239 38 60 120 240 112 248 -1 2 -20 -4 -41 -13 -236 -100 -346 -107 -401
-26 -13 19 -23 37 -23 42 0 4 17 13 37 20 21 6 68 27 105 45 76 38 101 69 144
173 38 94 70 281 48 281 -4 0 -22 -13 -40 -30 -19 -16 -53 -34 -76 -41 -51
-13 -124 -7 -145 13 -12 13 -9 18 27 42 59 39 84 98 83 201 0 197 -80 346
-211 395 -89 34 -225 20 -329 -33 -29 -15 -56 -27 -60 -27 -14 0 -63 87 -63
112 0 14 5 39 11 56 l11 31 66 -34 c37 -18 81 -36 97 -39 73 -15 235 44 322
118 55 48 77 112 77 231 1 104 -18 166 -64 210 -58 55 -32 92 95 136 132 46
202 86 228 129 l21 37 50 -23 c61 -29 86 -30 86 -6 0 28 27 59 74 87 36 21 64
27 157 34 63 5 139 17 169 26 99 30 252 111 298 158 l43 44 82 -14 c45 -8 124
-27 175 -44 131 -41 270 -62 362 -54 118 11 271 60 396 126 61 32 114 59 116
59 3 0 8 -19 11 -41 7 -55 32 -78 103 -95 74 -17 135 -17 199 0 83 22 115 41
227 141 l106 95 149 0 c81 0 177 5 213 11 187 29 397 195 511 403 15 26 29 44
33 38 16 -26 36 -134 36 -195 0 -73 -8 -96 -48 -139 -14 -15 -22 -31 -18 -35
4 -5 42 -8 85 -8 106 1 172 33 239 118 48 62 160 259 223 391 31 67 117 179
168 221 14 11 64 41 111 67 l87 48 40 -88 c42 -89 70 -186 75 -257 l3 -40
-160 -80 c-180 -90 -244 -130 -360 -220 -175 -137 -321 -312 -449 -537 l-26
-47 -764 6 -764 6 -6 -484 c-9 -693 -26 -3360 -26 -4039 0 -721 8 -804 95
-985 66 -137 156 -234 305 -330 87 -57 127 -76 448 -220 395 -175 839 -377
1527 -693 330 -151 605 -275 610 -275 6 0 567 260 1247 577 1169 547 1240 581
1318 643 152 122 285 303 341 465 41 120 48 211 59 793 11 553 11 3306 1 4060
l-6 450 -530 5 -530 5 -3 40 c-2 22 -12 105 -22 185 -10 80 -17 146 -16 148 2
1 25 -3 52 -9 28 -7 122 -13 220 -13 l171 -1 64 -60 c139 -129 181 -156 281
-180 48 -11 78 -12 132 -4 112 16 156 47 156 113 0 12 2 25 6 28 3 3 51 -19
107 -50 137 -75 283 -121 409 -129 116 -7 211 6 363 52 61 18 142 38 180 44
l70 12 46 -44 c51 -48 196 -124 299 -155 36 -11 101 -23 145 -26 153 -13 160
-14 209 -57 31 -27 46 -49 46 -65 0 -22 3 -24 28 -18 15 4 44 15 64 25 21 11
39 19 42 19 2 0 13 -15 24 -34 26 -44 100 -87 218 -126 130 -44 164 -89 108
-141 -49 -44 -68 -103 -66 -207 1 -51 6 -111 12 -133 27 -100 189 -205 330
-216 72 -5 78 -3 144 32 78 42 87 39 93 -32 4 -42 1 -53 -27 -90 l-31 -43 -57
29 c-71 36 -210 65 -266 57 -134 -21 -225 -116 -262 -273 -38 -159 -14 -284
65 -341 38 -28 40 -30 22 -46 -21 -19 -114 -22 -158 -5 -15 5 -42 24 -60 41
-29 28 -33 29 -39 13 -19 -48 39 -269 95 -363 27 -43 107 -94 193 -122 49 -15
53 -24 29 -63 -52 -84 -172 -77 -413 27 l-37 16 24 -63 c13 -34 28 -74 33 -88
6 -14 31 -58 56 -97 41 -63 88 -111 236 -240 34 -30 35 -31 15 -46 -28 -20
-121 -45 -197 -53 -106 -9 -158 12 -287 117 -101 82 -113 96 -145 163 -28 59
-35 89 -41 165 -4 50 -10 94 -14 97 -9 5 -116 -58 -150 -88 -44 -41 -109 -137
-126 -188 -17 -49 -18 -50 -36 -33 -11 10 -33 46 -50 81 -31 61 -31 65 -27
180 5 144 22 183 103 244 91 68 164 63 215 -15 l24 -38 18 22 c25 31 33 87 20
149 -13 61 -33 87 -107 136 -163 108 -372 98 -495 -25 -47 -47 -65 -43 -76 15
-11 59 23 101 173 214 68 51 97 65 160 81 97 25 201 25 273 0 30 -10 57 -17
59 -15 6 7 -112 178 -149 215 -57 57 -121 83 -217 88 -145 8 -251 -26 -360
-114 -23 -19 -43 -34 -46 -34 -10 0 14 105 31 139 10 20 40 51 66 69 72 48
143 66 268 67 l107 0 -37 38 c-20 21 -68 54 -107 73 -66 32 -205 74 -247 74
-26 0 -22 14 15 56 34 40 88 68 150 79 20 4 37 11 37 15 0 22 -54 70 -86 76
-46 8 -44 28 10 79 54 52 118 75 208 75 l69 0 56 -52 c62 -60 77 -85 87 -146
5 -37 3 -46 -18 -67 -31 -31 -69 -32 -115 -4 l-33 20 7 -38 c9 -48 28 -85 77
-151 55 -73 97 -91 214 -92 81 0 97 3 151 30 68 34 158 122 194 190 21 39 24
59 24 151 l0 106 -47 94 c-65 131 -165 253 -246 300 -133 77 -306 105 -492 80
-309 -41 -490 -160 -730 -479 -149 -199 -199 -362 -220 -724 -9 -156 -8 -198
10 -360 42 -384 77 -532 165 -713 66 -136 141 -231 343 -434 l153 -154 -94
-96 c-102 -104 -166 -194 -227 -323 -65 -137 -75 -188 -75 -393 0 -175 1 -183
32 -280 60 -185 151 -341 246 -419 23 -19 125 -90 227 -159 181 -121 186 -125
218 -187 35 -67 36 -93 6 -152 -17 -34 -6 -42 46 -33 49 8 126 74 167 143 27
45 28 51 28 183 0 120 2 139 19 157 l18 21 48 -24 c26 -13 59 -38 74 -55 25
-30 26 -37 26 -145 0 -107 1 -115 26 -144 25 -30 105 -73 197 -106 26 -9 47
-22 47 -29 0 -20 -34 -46 -59 -46 -28 0 -71 -22 -95 -49 -20 -22 -45 -129 -46
-197 0 -60 27 -140 62 -180 l31 -35 -21 -22 c-58 -62 -67 -154 -23 -247 16
-34 27 -69 24 -79 -3 -9 -31 -41 -63 -71 -43 -41 -61 -67 -70 -99 -22 -82 -29
-150 -23 -223 5 -65 15 -90 86 -233 l79 -160 -4 -77 c-3 -43 -1 -78 3 -78 8 0
68 42 186 133 48 37 91 67 95 67 3 0 18 -20 31 -43 31 -53 91 -109 148 -137
22 -12 42 -20 44 -18 15 17 47 117 54 171 7 47 26 102 60 175 76 162 93 252
67 353 -20 77 -55 142 -111 206 l-44 50 19 39 c17 35 25 104 21 188 -1 21 -14
42 -45 72 l-44 42 37 30 c47 38 71 87 71 144 0 50 -20 130 -43 173 -22 43 -86
101 -130 120 l-37 15 52 78 c28 42 71 103 95 134 92 121 120 225 103 382 -23
195 -110 319 -250 357 -132 35 -440 -7 -745 -103 -131 -41 -178 -51 -259 -55
-95 -6 -99 -5 -91 13 19 42 17 118 -4 158 -12 22 -19 41 -18 42 2 2 33 -1 71
-7 67 -9 123 -2 169 22 15 9 12 15 -31 57 -27 27 -52 63 -59 84 -6 21 -9 38
-7 38 2 0 25 -13 50 -30 82 -52 133 -48 238 18 l48 29 -49 28 c-79 46 -112 74
-133 115 -11 22 -20 41 -20 43 0 2 28 -2 63 -10 74 -18 174 -13 235 12 23 9
42 20 42 24 0 3 -31 26 -68 51 -92 62 -154 125 -184 190 -26 57 -54 148 -47
155 2 2 71 -16 152 -40 198 -60 288 -72 413 -57 54 6 100 10 101 8 2 -2 -1
-15 -7 -30 -5 -15 -10 -50 -10 -78 0 -43 4 -53 33 -79 106 -96 116 -106 126
-146 19 -72 -10 -155 -75 -212 l-36 -33 33 -34 c46 -48 113 -68 210 -62 66 4
86 10 129 36 l50 31 0 -52 c0 -66 25 -108 87 -148 72 -45 282 -150 421 -209
131 -56 168 -86 157 -127 -8 -35 8 -28 69 28 40 36 61 65 75 105 39 104 19
264 -45 357 l-26 39 18 61 c24 86 22 219 -6 322 -38 138 -43 124 41 127 63 3
89 -2 168 -30 105 -37 100 -42 59 63 -22 56 -23 71 -20 243 4 228 -5 268 -75
333 -27 24 -61 54 -78 66 l-30 22 49 93 c27 50 67 115 88 143 113 147 244 534
270 800 11 116 5 343 -12 485 -38 297 -146 613 -283 823 -167 256 -536 602
-861 807 -88 56 -91 59 -88 92 7 73 75 181 189 299 l44 46 -52 47 c-29 26 -75
59 -101 72 -26 13 -48 28 -48 33 0 17 94 137 163 209 l71 72 -28 29 c-15 16
-43 37 -62 47 -19 10 -34 21 -34 24 1 7 260 152 359 199 69 33 96 41 143 41
57 0 138 -24 138 -41 0 -4 -20 -31 -44 -58 -60 -68 -115 -163 -175 -303 -63
-146 -81 -216 -81 -311 0 -151 78 -325 200 -448 124 -124 203 -152 460 -165
220 -11 340 20 461 119 60 49 159 166 218 257 128 200 164 520 91 805 -32 124
-117 288 -189 367 -143 156 -362 274 -595 322 -97 20 -365 21 -501 1 -135 -19
-128 -20 -111 13 33 64 47 132 61 300 22 253 31 276 125 348 27 21 48 39 46
41 -5 5 -126 -48 -167 -73 -20 -12 -59 -54 -88 -93 -88 -119 -175 -178 -277
-188 l-54 -6 34 74 c68 149 103 274 131 474 20 136 19 356 -1 453 -24 115 -88
302 -133 390 -77 146 -253 339 -404 440 -369 250 -598 334 -907 335 -144 1
-308 -21 -415 -54 -34 -10 -121 -46 -194 -78 -151 -69 -275 -159 -405 -298
-64 -68 -85 -100 -130 -195 -48 -102 -94 -238 -125 -370 -20 -84 -24 -193 -12
-293 15 -115 37 -187 97 -314 37 -79 57 -106 126 -176 71 -70 100 -90 194
-137 164 -82 282 -97 387 -49 65 29 136 91 163 143 l24 47 92 -45 c114 -54
189 -65 288 -40 70 18 114 52 125 97 6 24 3 27 -32 34 -90 16 -142 82 -143
179 0 96 71 188 172 222 61 20 228 23 280 5 42 -14 164 -137 222 -225 95 -144
150 -422 128 -652 -16 -164 -96 -372 -179 -464 -75 -84 -138 -102 -204 -57
-31 21 -34 27 -34 75 1 52 1 52 83 130 93 88 112 124 112 214 0 103 -41 170
-152 253 l-38 27 0 -41 c0 -92 -46 -142 -220 -243 l-105 -60 -77 42 c-70 37
-264 110 -294 110 -13 0 -62 -90 -89 -162 -10 -27 -20 -48 -22 -48 -3 0 -34
27 -70 59 -36 33 -88 71 -114 85 -61 34 -187 66 -256 66 l-53 0 27 -42 c32
-48 39 -122 13 -138 -21 -14 -130 -12 -171 2 -19 6 -59 38 -91 73 -32 35 -73
70 -92 79 -34 16 -136 23 -136 9 0 -5 9 -37 20 -71 25 -81 18 -135 -22 -176
-27 -27 -32 -28 -100 -24 -61 3 -73 7 -93 30 -14 16 -26 47 -30 77 -5 36 -11
51 -22 51 -8 0 -43 -29 -77 -64 -33 -35 -71 -69 -83 -75 -49 -25 -216 -5 -267
32 -18 13 -15 16 40 47 34 19 110 84 177 149 92 90 125 129 150 180 32 65 32
67 32 216 -1 161 -12 220 -62 318 l-25 50 -22 -39 c-12 -21 -46 -74 -75 -117
-76 -113 -208 -205 -347 -241 -32 -8 -85 -24 -116 -35 -69 -24 -68 -27 -32 95
49 172 117 244 274 290 23 7 22 9 -20 21 -67 21 -217 28 -281 13 -30 -6 -100
-34 -157 -61 -92 -45 -112 -60 -210 -157 -59 -59 -129 -138 -157 -177 -61 -85
-149 -154 -294 -228 -174 -89 -161 -87 -225 -31 -31 27 -56 51 -56 54 0 3 21
14 48 23 26 10 77 35 113 57 l65 39 44 113 c73 192 127 278 175 278 34 0 72
35 78 72 3 18 2 65 -2 103 -7 58 -5 77 9 112 35 81 163 193 256 223 32 11 38
10 60 -11 31 -29 32 -75 2 -106 -27 -29 -20 -36 28 -27 56 10 100 58 109 118
10 67 -8 118 -64 180 -26 29 -51 66 -55 82 -23 89 -98 129 -234 122 -75 -3
-100 -9 -154 -36 -114 -56 -242 -203 -278 -319 -9 -29 -19 -55 -23 -59 -10
-11 -107 25 -154 58 -25 16 -51 44 -60 62 -14 31 -14 34 16 81 44 70 72 150
78 228 5 57 9 67 22 61 68 -28 71 -28 133 -11 35 10 118 32 185 50 l122 32 25
-24 25 -23 8 38 c4 22 8 86 8 144 0 101 -1 107 -34 164 -19 32 -48 75 -65 94
-33 37 -116 82 -153 82 -12 0 -25 4 -28 10 -3 5 12 56 35 112 100 249 194 354
260 288 l20 -20 11 27 c24 63 -15 146 -88 185 -107 58 -215 46 -300 -35 -62
-58 -75 -57 -105 9 l-20 47 22 54 23 54 -31 32 c-28 30 -29 34 -17 67 20 54
18 119 -7 179 -20 46 -21 55 -8 59 23 7 130 123 153 167 20 36 22 55 22 197 0
143 2 159 21 185 11 15 36 33 55 40 l34 11 -60 28 c-89 42 -167 40 -266 -8
-41 -19 -94 -51 -117 -71 -24 -21 -47 -37 -51 -37 -3 0 -5 20 -3 45 9 113 -33
278 -83 325 l-23 22 -52 -65 c-48 -60 -110 -107 -142 -107 -9 0 -18 23 -26 67
-14 74 -57 172 -97 218 l-25 30 -70 -73 c-39 -41 -70 -70 -70 -65 0 12 -109
133 -119 133 -5 0 -31 -26 -58 -58z m80 -184 c15 -40 29 -92 33 -115 l6 -42
43 57 c24 31 64 77 88 101 l45 43 18 -33 c26 -49 25 -150 -3 -211 -12 -27 -18
-48 -14 -48 5 0 33 11 62 24 30 12 88 31 129 41 55 13 82 26 101 47 24 25 28
26 34 10 3 -9 10 -82 15 -161 9 -154 16 -175 70 -208 24 -14 27 -13 70 27 67
62 119 95 180 115 30 10 61 20 68 23 9 3 12 -13 12 -59 0 -137 -35 -253 -92
-306 -59 -56 -203 -96 -260 -74 -24 9 -59 51 -72 86 -2 6 -6 8 -9 5 -8 -8 11
-97 29 -136 16 -33 16 -36 -2 -55 -13 -14 -27 -19 -46 -17 -16 3 -28 3 -28 1
0 -2 13 -27 30 -56 36 -64 48 -129 30 -162 -18 -33 -59 -49 -94 -35 -25 9 -27
8 -21 -7 19 -44 17 -80 -7 -107 -19 -22 -37 -28 -105 -38 -46 -7 -83 -15 -83
-18 0 -3 21 -18 48 -34 107 -67 121 -104 48 -136 -53 -24 -195 -42 -213 -27
-18 14 -17 -17 2 -53 15 -28 77 -67 135 -85 137 -42 144 -86 20 -135 -62 -25
-80 -37 -80 -56 0 -26 47 -66 95 -83 47 -15 50 -18 50 -51 0 -30 -4 -35 -25
-38 -15 -2 -48 11 -81 31 -53 32 -57 33 -68 15 -9 -15 -24 -18 -84 -18 -79 0
-84 2 -111 43 -17 28 -18 28 -38 10 -28 -25 -149 -208 -172 -260 -18 -40 -22
-43 -57 -43 -21 0 -49 -4 -63 -10 -44 -16 -103 -78 -126 -132 -19 -43 -21 -64
-18 -142 3 -50 10 -104 16 -119 l12 -28 25 30 c14 16 39 33 56 36 78 17 179
-28 179 -80 0 -18 -12 -31 -46 -51 -60 -35 -149 -41 -339 -24 l-141 13 -89
-36 c-49 -20 -91 -34 -93 -32 -3 2 -1 24 2 49 12 75 52 118 158 169 121 58
168 109 168 182 l0 24 -35 -23 c-30 -21 -170 -66 -203 -66 -7 0 -12 12 -12 27
0 43 81 113 176 152 203 83 225 99 238 169 7 39 -5 41 -45 7 -29 -24 -86 -45
-122 -45 -14 0 -16 5 -11 28 18 74 57 118 194 222 151 114 175 144 175 220 0
79 -14 94 -85 87 -63 -5 -177 -53 -233 -98 -40 -33 -57 -32 -101 2 -19 15 -26
30 -26 54 0 29 9 41 55 82 81 70 142 103 193 103 45 0 55 13 23 30 -46 24 -86
12 -186 -55 -54 -36 -101 -65 -106 -65 -4 0 -37 20 -73 45 -69 49 -128 127
-147 198 -5 21 -25 58 -44 83 -38 50 -56 102 -47 136 10 40 54 98 106 139 28
23 140 84 249 137 211 103 214 105 182 162 -23 40 -18 82 15 133 32 47 154
167 170 167 6 0 8 53 4 143 -3 86 -2 148 4 156 8 11 26 1 91 -52 44 -37 82
-67 84 -67 2 0 7 24 11 53 9 84 51 187 75 187 5 0 20 -33 34 -72z m708 -900
c14 -19 24 -51 27 -82 3 -46 0 -57 -37 -111 -43 -65 -56 -102 -43 -123 6 -9
18 -4 46 23 44 41 72 45 87 11 15 -32 -15 -99 -71 -160 -49 -53 -38 -58 42
-21 88 41 92 39 83 -52 -14 -150 -68 -273 -153 -349 -44 -39 -143 -83 -212
-94 -82 -12 -110 -13 -110 0 0 5 29 53 65 106 36 53 65 97 63 99 -2 1 -39 7
-82 13 -80 10 -128 34 -134 64 -2 10 8 17 27 21 36 7 115 77 138 120 10 20 13
43 9 67 -4 28 -2 41 10 51 31 26 105 130 126 176 18 42 20 59 14 150 l-7 102
33 10 c51 14 55 13 79 -21z m586 -409 c31 -11 70 -44 84 -71 8 -15 6 -17 -13
-9 -38 13 -87 -7 -137 -57 -34 -34 -70 -92 -129 -209 -110 -215 -178 -279
-217 -203 -24 46 -19 87 14 118 34 32 103 123 98 128 -2 2 -28 -9 -58 -26 -30
-16 -57 -30 -61 -30 -16 0 -7 51 18 114 38 97 149 194 269 237 58 21 92 23
132 8z m-509 -635 c2 -33 -8 -95 -29 -175 -29 -117 -31 -130 -23 -229 12 -155
9 -190 -16 -248 -27 -64 -93 -124 -157 -146 -64 -22 -286 -49 -337 -42 -55 9
-106 40 -106 66 0 37 27 87 60 110 43 31 111 38 147 15 26 -18 27 -17 49 9 55
63 58 191 7 253 -45 57 -106 84 -175 80 -37 -2 -58 1 -58 8 0 6 -16 43 -35 84
-19 40 -35 76 -35 80 0 14 50 31 88 31 57 0 110 -18 145 -50 l32 -28 80 83
c44 45 100 93 124 105 52 26 152 50 201 47 35 -2 35 -2 38 -53z m347 -69 c76
-36 169 -127 183 -179 15 -51 7 -67 -25 -55 -38 14 -69 11 -105 -11 -80 -49
-248 -77 -299 -50 -25 14 -49 62 -49 98 0 45 23 57 104 55 l71 -2 -75 22 c-83
25 -101 47 -81 100 25 64 163 75 276 22z m-1152 -53 c28 -30 87 -166 100 -228
l12 -61 30 19 c52 31 132 17 190 -34 28 -24 35 -37 35 -67 0 -54 -11 -64 -72
-66 -73 -2 -165 -52 -227 -122 -78 -89 -110 -70 -112 69 -1 46 -3 72 -6 58
-25 -160 -25 -160 -43 -160 -11 0 -28 18 -44 44 -14 24 -41 57 -60 74 -51 45
-92 50 -198 26 -27 -6 -28 -5 -28 38 0 123 133 187 229 110 l37 -30 11 85 c12
87 45 173 89 230 29 38 35 40 57 15z m-4289 -127 c143 -25 241 -60 344 -120
186 -111 314 -273 357 -455 35 -148 29 -379 -13 -484 -49 -125 -153 -260 -230
-300 -63 -33 -202 -7 -202 36 0 7 25 33 56 58 94 74 163 190 188 313 24 117
21 233 -9 323 -44 131 -92 213 -174 298 -63 65 -91 86 -161 118 -47 22 -103
46 -125 54 -40 15 -301 48 -313 40 -4 -2 -59 -9 -122 -16 -153 -15 -335 -77
-554 -187 l-70 -35 43 51 c119 142 409 296 603 321 90 11 274 4 382 -15z
m8882 -18 c78 -22 199 -77 293 -132 78 -47 241 -186 241 -206 0 -5 -35 8 -77
29 -117 59 -324 140 -395 156 -135 30 -279 39 -405 26 -130 -13 -162 -22 -288
-80 -156 -72 -263 -200 -331 -398 -28 -79 -34 -112 -34 -179 0 -88 20 -209 43
-265 35 -83 118 -184 201 -244 l29 -21 -21 -21 c-22 -22 -80 -42 -125 -42 -87
0 -202 116 -282 286 -78 165 -68 480 21 656 64 127 126 198 240 275 144 97
249 137 439 169 103 17 379 12 451 -9z m-6055 -383 c11 -11 23 -40 27 -64 l8
-45 74 -7 c47 -5 84 -15 100 -26 32 -24 54 -92 46 -137 l-7 -35 -102 0 c-81 0
-116 5 -167 23 -140 50 -234 141 -216 212 8 33 46 76 80 91 43 20 132 13 157
-12z m3019 -4 c105 -75 56 -185 -118 -268 -71 -34 -83 -36 -193 -40 l-118 -4
-6 35 c-9 48 13 115 45 139 16 11 53 21 100 26 l74 7 8 44 c12 72 41 93 124
88 33 -2 62 -11 84 -27z m-6063 -6 c195 -43 360 -199 403 -383 19 -80 9 -185
-24 -249 -30 -59 -92 -126 -124 -134 -25 -7 -29 4 -8 22 31 25 49 108 44 204
-9 163 -61 248 -197 320 -133 70 -255 83 -384 43 -102 -33 -172 -83 -266 -189
-117 -132 -208 -298 -230 -423 l-7 -40 -14 25 c-9 15 -16 65 -18 125 -18 461
370 780 825 679z m9218 -28 c112 -38 179 -79 256 -155 127 -128 191 -285 193
-481 0 -88 -3 -122 -15 -144 l-16 -29 -13 54 c-16 69 -86 219 -138 295 -22 33
-77 98 -123 145 -68 70 -99 94 -164 125 -74 36 -87 39 -187 42 -82 3 -119 0
-160 -13 -81 -26 -170 -79 -215 -128 -98 -107 -122 -322 -47 -432 29 -44 12
-46 -42 -6 -111 81 -148 247 -93 410 56 162 213 294 401 336 99 23 264 14 363
-19z m-4656 -135 c23 -12 72 -42 107 -67 77 -52 101 -54 268 -24 140 26 237
26 293 0 23 -10 78 -46 122 -80 76 -60 82 -62 158 -71 43 -5 115 -6 161 -3 76
6 82 5 82 -12 -1 -42 -20 -97 -41 -120 -27 -29 -81 -32 -179 -8 -124 29 -495
103 -585 116 -137 20 -622 17 -810 -5 -189 -22 -571 -81 -735 -113 -159 -30
-223 -31 -251 -3 -25 25 -49 80 -49 113 0 21 7 27 39 36 89 24 133 27 211 17
l80 -10 118 61 c201 104 317 124 452 76 46 -16 83 -23 100 -19 15 3 68 29 116
57 132 76 169 89 239 84 36 -2 78 -12 104 -25z m-213 -347 c22 -6 23 -8 10
-33 -21 -39 -83 -95 -149 -135 l-58 -34 -53 18 c-67 23 -120 50 -175 90 -42
31 -44 33 -25 47 23 17 109 43 179 54 51 8 229 3 271 -7z m607 -14 c20 -6 37
-17 37 -25 0 -20 -78 -83 -164 -131 l-74 -42 -43 25 c-110 62 -214 166 -186
185 17 13 384 2 430 -12z m347 -50 c95 -15 236 -50 255 -64 15 -11 10 -17 -37
-53 -56 -44 -84 -58 -158 -78 -43 -11 -47 -11 -82 17 -43 33 -118 141 -118
169 0 22 37 25 140 9z m-1580 -13 c0 -22 -55 -99 -103 -146 l-45 -43 -58 17
c-88 25 -217 95 -203 109 10 11 204 58 268 66 107 12 141 11 141 -3z m840 -68
c22 -21 40 -48 40 -60 0 -41 -122 -159 -165 -159 -21 0 -109 92 -125 131 -12
28 -11 32 21 65 18 19 55 45 82 58 59 30 87 23 147 -35z m-712 17 c15 -8 47
-35 71 -59 l44 -46 -26 -43 c-34 -59 -72 -98 -95 -98 -21 0 -85 47 -119 88
-34 41 -29 66 25 122 53 54 60 57 100 36z m1269 -46 c86 -69 92 -84 56 -122
-36 -39 -107 -88 -127 -88 -17 0 -78 68 -113 128 -22 36 -23 45 -12 59 20 23
100 73 119 73 8 0 43 -23 77 -50z m-1689 -116 c2 -1 -11 -23 -27 -49 -20 -31
-32 -43 -36 -34 -12 33 -35 115 -35 126 0 9 66 -20 98 -43z m797 26 c32 -20
93 -105 83 -115 -2 -3 -36 2 -74 10 -86 18 -150 19 -234 1 -36 -8 -67 -12 -68
-11 -8 7 55 77 88 98 81 52 141 57 205 17z m1375 16 c0 -23 -40 -145 -49 -151
-13 -7 -68 41 -76 66 -8 23 14 52 60 80 36 22 65 24 65 5z m-763 -32 c49 -24
123 -93 123 -114 0 -13 7 -13 -86 10 -56 15 -112 21 -191 21 -62 0 -113 4
-113 8 0 12 63 67 95 84 46 25 113 21 172 -9z m-2326 -60 c114 -69 282 -232
402 -391 59 -77 106 -115 199 -157 72 -34 199 -66 256 -66 99 0 117 -29 55
-88 -86 -81 -229 -115 -488 -116 -181 -1 -205 4 -249 53 -22 25 -36 27 -36 6
0 -28 72 -95 134 -124 43 -21 83 -32 136 -36 96 -8 130 -21 130 -49 0 -37 -19
-46 -97 -46 -76 0 -174 -25 -223 -58 -16 -10 -46 -16 -83 -16 -58 -1 -58 -1
-36 -19 26 -21 61 -19 211 13 84 18 113 17 152 -6 26 -16 11 -40 -66 -104 -80
-67 -140 -97 -257 -126 -193 -49 -440 -25 -606 59 -100 50 -195 137 -239 217
-29 54 -56 149 -56 199 0 35 0 35 16 13 42 -61 178 -74 298 -28 80 31 212 36
271 12 19 -8 37 -11 39 -7 3 4 0 27 -6 52 -14 56 -98 139 -205 205 -98 59
-221 152 -261 198 -42 48 -62 97 -68 171 -3 33 -6 74 -8 90 l-4 30 49 -47 c33
-32 58 -48 75 -48 39 0 166 -45 269 -96 111 -55 200 -123 222 -169 9 -19 23
-35 30 -35 24 0 55 87 60 170 7 93 -8 146 -78 287 -27 53 -49 99 -49 101 0 11
61 -13 111 -44z m1145 21 c17 -7 48 -30 70 -51 l38 -39 -69 -8 c-38 -4 -115
-23 -170 -42 -55 -18 -101 -32 -103 -30 -8 8 37 94 69 129 56 64 89 72 165 41z
m1677 2 c39 -17 104 -87 124 -134 8 -19 12 -37 10 -39 -2 -3 -42 6 -88 19 -46
14 -128 33 -183 43 l-99 18 34 29 c38 33 125 77 152 77 10 0 32 -6 50 -13z
m1060 -74 c-69 -134 -93 -205 -93 -275 0 -126 65 -265 86 -183 18 73 235 207
419 260 118 34 145 47 174 82 l29 36 -4 -64 c-8 -96 -23 -153 -53 -201 -28
-44 -176 -164 -280 -227 -76 -46 -154 -110 -180 -147 -23 -34 -46 -102 -37
-111 3 -3 20 0 37 8 52 21 215 14 275 -12 54 -23 153 -35 208 -25 20 4 52 21
71 38 l35 30 0 -25 c0 -53 -23 -134 -58 -200 -65 -126 -213 -230 -397 -278
-120 -32 -329 -32 -445 -1 -123 33 -199 73 -281 150 l-72 68 42 19 c42 19 44
19 154 -3 114 -23 163 -27 191 -16 31 12 15 24 -30 24 -30 0 -68 10 -108 29
-73 35 -146 51 -226 51 -56 0 -60 2 -66 26 -11 42 12 54 120 64 76 8 109 16
149 37 69 38 127 94 127 123 l0 24 -27 -27 c-51 -48 -90 -57 -242 -57 -123 0
-264 12 -312 26 -9 2 -22 23 -29 47 -7 23 -23 63 -36 89 l-23 46 73 16 c84 19
193 69 250 115 22 18 62 62 90 99 68 93 288 310 364 361 58 39 132 73 141 65
2 -2 -14 -38 -36 -81z m-1566 -48 c262 -23 450 -65 477 -107 14 -23 -9 -46
-65 -68 -41 -16 -42 -16 -158 26 -148 53 -228 70 -418 85 -135 11 -162 11
-248 -4 -53 -10 -140 -34 -193 -55 -96 -36 -99 -37 -247 -38 -167 -2 -265 -18
-345 -59 -57 -29 -80 -31 -120 -10 -35 18 -39 46 -11 91 27 45 77 64 235 90
354 59 763 77 1093 49z m82 -240 c87 -25 129 -44 182 -80 132 -90 236 -226
279 -364 79 -253 62 -415 -63 -603 -108 -162 -215 -246 -367 -287 -280 -76
-485 -66 -809 41 l-94 31 74 71 c41 39 125 124 186 189 l113 119 40 -35 c46
-39 103 -57 183 -57 72 0 114 15 160 58 71 68 96 187 57 268 -87 178 -314 188
-430 19 l-32 -47 -43 49 c-46 52 -199 190 -362 327 l-103 85 33 25 c95 71 258
140 442 186 229 58 366 59 554 5z m-6284 -173 c55 -31 122 -60 170 -72 84 -22
220 -30 291 -18 l40 8 23 -73 c79 -245 257 -465 405 -501 39 -10 129 11 162
36 61 49 82 163 43 247 -11 25 -48 90 -84 145 -36 57 -67 118 -71 141 l-7 40
37 -37 c57 -58 111 -84 245 -118 120 -30 193 -58 206 -81 4 -6 17 5 32 28 45
67 76 95 139 124 33 15 66 35 73 43 7 9 17 13 22 10 12 -7 11 -75 -2 -112 -13
-39 8 -85 54 -112 60 -37 112 -24 193 49 58 51 149 101 183 101 15 0 21 -6 21
-22 0 -33 42 -101 70 -115 60 -30 191 -2 386 83 6 3 20 -20 32 -53 38 -104
103 -143 241 -143 86 0 89 -2 96 -88 3 -43 7 -85 8 -95 1 -13 -9 -23 -37 -32
-57 -20 -129 -73 -247 -181 -57 -52 -121 -104 -142 -115 -34 -18 -44 -19 -95
-9 -115 24 -296 138 -383 241 -23 28 -44 48 -46 45 -11 -11 43 -101 92 -154
29 -31 92 -86 139 -122 47 -36 86 -68 86 -72 0 -3 -23 -11 -51 -18 -92 -22
-330 9 -587 76 -163 43 -219 64 -278 105 -54 37 -57 25 -6 -22 114 -108 314
-193 533 -225 145 -21 171 -32 211 -90 61 -87 80 -104 162 -144 108 -51 175
-68 331 -81 143 -11 233 -32 242 -54 8 -23 -23 -63 -68 -86 -60 -30 -230 -38
-319 -14 -159 41 -310 115 -310 151 0 8 -4 12 -10 9 -17 -10 -11 -56 11 -92
17 -27 46 -46 145 -93 77 -37 124 -65 124 -75 0 -21 -50 -44 -112 -51 -85 -9
-369 45 -425 81 -12 8 -25 15 -28 15 -30 0 72 -111 125 -135 35 -16 39 -20 24
-26 -35 -14 -183 -9 -316 10 -145 21 -372 32 -357 17 2 -3 63 -14 134 -26 152
-24 211 -39 360 -87 104 -33 115 -35 205 -29 101 6 253 38 388 81 46 14 86 24
89 21 3 -2 -2 -30 -11 -61 -13 -44 -29 -68 -79 -119 -37 -37 -85 -73 -117 -89
-43 -20 -51 -27 -37 -33 80 -31 353 109 500 257 38 38 74 69 81 69 7 0 21 -9
30 -19 10 -11 41 -30 69 -42 44 -20 69 -24 157 -24 58 0 119 2 135 5 28 5 30
3 33 -32 4 -44 -12 -77 -67 -140 -23 -25 -41 -48 -41 -51 0 -3 39 14 88 38
103 51 150 65 217 65 59 0 75 -12 75 -55 0 -54 -28 -69 -134 -73 l-92 -4 -23
-49 c-35 -78 -185 -191 -288 -218 -32 -9 -54 -9 -85 -1 -51 13 -68 33 -68 74
0 39 42 131 67 145 10 6 14 11 8 11 -27 0 -103 -28 -240 -90 -82 -37 -174 -75
-204 -84 -146 -43 -276 5 -256 94 6 29 5 31 -13 21 -11 -6 -36 -33 -56 -61
-51 -71 -85 -84 -221 -84 -129 -1 -182 16 -215 69 -28 46 -25 59 23 112 l42
46 -34 -6 c-52 -11 -125 -62 -234 -165 -120 -113 -176 -151 -292 -198 -157
-63 -249 -56 -282 23 -25 61 -1 135 79 242 36 48 38 52 17 46 -98 -31 -159
-94 -230 -241 -52 -106 -69 -131 -127 -186 -54 -50 -84 -69 -150 -95 -46 -18
-93 -33 -106 -33 -58 0 -124 -30 -167 -77 -129 -139 -140 -252 -23 -253 31 0
76 -87 76 -148 0 -42 -4 -51 -40 -82 -71 -63 -214 -98 -289 -69 -35 13 -80 55
-99 92 -8 15 -18 27 -23 27 -12 0 -88 -150 -112 -219 -27 -78 -25 -175 6 -268
41 -121 82 -163 160 -163 71 0 136 46 121 86 -7 19 54 19 123 -2 101 -30 158
-117 132 -204 -16 -53 -84 -127 -129 -140 -47 -13 -179 -13 -256 0 -33 5 -62
7 -65 4 -3 -3 10 -35 29 -72 23 -44 65 -97 125 -159 109 -112 174 -147 260
-141 61 3 64 -1 35 -50 -29 -48 -108 -82 -187 -82 -38 0 -63 -4 -63 -11 0 -18
107 -155 139 -178 64 -46 140 -73 222 -78 43 -3 79 -9 79 -12 0 -10 -61 -48
-125 -78 -54 -25 -71 -28 -165 -28 -102 0 -108 1 -199 42 -52 24 -97 41 -99
38 -7 -7 85 -162 134 -226 73 -95 190 -196 279 -240 233 -115 563 -83 737 70
28 25 77 91 124 166 42 69 80 125 85 125 14 0 70 -79 80 -112 5 -18 9 -72 9
-120 0 -48 4 -90 10 -93 16 -10 99 53 178 134 65 67 72 72 72 48 0 -154 -251
-376 -504 -447 -146 -41 -248 -53 -381 -45 -215 12 -389 62 -615 175 -271 136
-510 328 -624 499 -140 213 -198 319 -212 390 -7 31 -6 33 14 22 43 -23 222
-7 222 20 0 6 -36 52 -81 102 -132 151 -199 282 -199 390 0 45 4 59 25 80 28
27 95 42 139 31 17 -4 35 0 51 10 l24 16 -69 115 c-83 140 -110 236 -110 387
0 104 16 167 52 205 26 28 58 29 129 5 72 -25 117 -33 124 -23 2 5 -9 53 -26
107 -36 116 -35 167 4 264 43 105 182 320 222 343 27 15 71 -41 85 -109 7 -32
24 -77 38 -99 56 -90 96 -109 61 -29 -16 36 -19 56 -14 97 16 114 62 195 208
367 110 128 163 158 223 125 46 -24 50 -46 20 -98 -14 -24 -26 -47 -26 -51 0
-22 78 41 174 142 66 68 127 122 151 133 46 21 154 26 173 7 9 -9 12 -8 12 5
0 23 -36 54 -72 61 -17 3 -70 6 -117 6 -54 0 -106 6 -135 16 -64 22 -143 97
-227 215 -38 54 -74 101 -79 104 -40 25 25 62 174 100 l91 23 -102 99 c-129
125 -173 183 -173 229 0 52 43 68 186 69 132 0 129 1 300 -156 206 -192 272
-232 379 -233 101 0 220 72 246 151 31 96 -33 224 -141 278 -58 30 -192 31
-408 4 -183 -22 -193 -22 -288 -7 -129 22 -245 59 -319 103 -33 20 -116 81
-185 135 -178 141 -305 225 -380 250 -36 12 -67 24 -69 26 -3 2 6 15 19 29 29
31 147 70 264 87 l86 12 -24 25 c-53 57 -92 177 -121 366 -20 133 -20 131 8
113 12 -9 63 -38 112 -66z m11715 39 c0 -40 -40 -249 -60 -316 -25 -81 -62
-150 -86 -159 -27 -10 -13 -16 83 -31 159 -26 273 -71 273 -109 0 -8 -15 -16
-34 -19 -57 -9 -157 -65 -264 -146 -55 -42 -149 -113 -208 -159 -127 -97 -197
-133 -320 -168 -125 -35 -256 -41 -414 -19 -69 10 -177 19 -240 19 -109 1
-119 -1 -175 -29 -104 -52 -165 -170 -136 -265 23 -76 120 -147 217 -157 107
-11 203 38 352 180 122 116 204 185 236 197 37 14 213 12 255 -3 93 -33 66
-100 -105 -266 -63 -62 -114 -115 -111 -117 2 -2 46 -15 99 -28 96 -24 151
-47 163 -66 4 -6 -11 -34 -32 -63 -22 -29 -61 -82 -86 -119 -95 -135 -167
-177 -302 -178 -142 -1 -215 -25 -215 -72 0 -17 1 -18 25 -2 35 23 122 13 179
-20 24 -14 84 -70 135 -125 87 -94 155 -150 167 -138 3 3 -6 26 -21 51 -21 36
-24 49 -15 65 24 46 93 55 148 19 49 -33 224 -248 266 -327 21 -41 40 -96 47
-137 11 -63 10 -73 -9 -114 -11 -25 -18 -47 -16 -49 8 -8 55 43 79 84 12 22
28 65 35 95 23 98 61 131 106 89 61 -58 198 -294 223 -384 17 -62 13 -102 -19
-205 -17 -51 -30 -98 -30 -102 0 -13 44 -9 91 7 78 28 128 36 149 25 54 -29
84 -159 69 -297 -13 -118 -47 -213 -117 -328 -40 -66 -57 -103 -51 -110 6 -5
49 -13 96 -16 78 -5 88 -8 109 -33 46 -53 26 -174 -52 -305 -17 -31 -71 -101
-118 -156 -47 -55 -86 -103 -86 -108 0 -26 203 -40 228 -15 21 21 14 -31 -12
-95 -23 -55 -79 -150 -182 -309 -193 -298 -712 -614 -1105 -674 -74 -11 -146
-14 -249 -11 -251 8 -415 68 -603 219 -101 81 -161 166 -173 250 l-6 43 73
-71 c80 -78 154 -134 176 -134 10 0 13 21 13 88 0 111 13 155 58 204 l37 39
75 -123 c84 -137 134 -192 219 -236 188 -101 473 -101 660 -2 133 71 275 222
360 381 50 93 56 91 -84 33 -80 -34 -99 -38 -175 -37 -95 0 -160 20 -245 75
l-50 31 89 13 c151 23 233 73 317 196 21 31 39 59 39 61 0 2 -29 7 -65 10
-105 10 -181 54 -200 116 -7 23 -6 23 29 17 52 -10 131 15 199 64 91 65 237
251 237 301 0 15 -6 16 -42 7 -24 -6 -92 -11 -153 -12 -129 -1 -170 14 -216
76 -59 83 -62 152 -6 215 39 44 95 70 170 79 52 6 55 5 51 -13 -9 -32 31 -70
86 -83 45 -11 54 -10 93 9 96 47 155 262 112 409 -16 52 -101 225 -114 230 -3
1 -15 -14 -26 -35 -26 -48 -86 -90 -140 -99 -75 -11 -237 49 -271 101 -24 37
-15 123 19 174 23 35 33 41 62 41 76 0 80 79 8 187 -19 30 -52 67 -72 83 -36
31 -52 37 -171 63 -173 39 -268 120 -355 302 -42 87 -70 131 -104 164 -46 45
-125 90 -137 79 -3 -4 11 -27 31 -54 57 -74 78 -123 79 -181 2 -95 -70 -138
-183 -109 -160 41 -242 91 -429 262 -92 84 -155 127 -206 138 l-30 7 43 -46
c37 -41 42 -51 37 -78 -8 -41 -40 -73 -92 -93 -35 -13 -67 -16 -156 -12 -128
6 -157 16 -193 68 -14 20 -39 50 -56 66 l-30 29 7 -42 c5 -36 3 -45 -19 -67
-32 -32 -99 -50 -158 -42 -66 9 -137 35 -306 112 -81 36 -163 68 -182 71 l-36
6 22 -24 c50 -55 69 -152 35 -182 -29 -26 -102 -32 -160 -13 -56 19 -169 95
-219 147 -18 19 -39 50 -47 70 -17 42 -39 49 -142 49 -73 0 -104 20 -104 68 0
41 13 54 61 59 52 6 173 -31 256 -78 29 -16 55 -29 58 -29 3 0 -17 29 -45 66
-52 68 -64 96 -58 135 2 20 8 23 33 21 17 -2 73 -4 125 -4 104 -1 185 21 232
65 14 13 31 21 39 19 8 -2 46 -35 84 -72 77 -75 207 -163 312 -212 72 -34 175
-50 187 -29 4 7 0 11 -11 11 -31 0 -104 52 -160 114 -38 41 -57 73 -69 112 -9
31 -14 57 -12 59 2 2 51 -11 110 -30 147 -46 308 -78 403 -78 66 0 102 7 207
41 133 43 219 63 358 83 47 7 90 16 95 22 16 15 -229 1 -390 -22 -160 -24
-204 -25 -259 -10 l-39 11 39 18 c21 10 49 27 61 37 24 19 73 82 73 93 0 4
-21 -3 -47 -16 -64 -31 -283 -74 -374 -74 -79 0 -144 22 -144 50 0 9 44 37
113 71 61 30 123 66 137 79 26 25 42 79 30 107 -5 15 -9 13 -20 -13 -15 -35
-83 -72 -215 -116 -151 -51 -256 -59 -373 -27 -44 12 -107 64 -107 88 0 33 87
55 258 66 118 7 247 40 334 87 56 30 81 53 157 148 41 51 56 57 206 80 148 23
249 56 376 121 95 49 211 141 196 155 -4 4 -17 -2 -30 -13 -33 -30 -86 -59
-138 -76 -73 -25 -315 -85 -414 -104 -105 -19 -358 -24 -375 -7 -8 8 12 28 71
74 116 90 187 164 215 223 13 28 22 52 20 54 -1 2 -41 -34 -87 -79 -124 -122
-284 -208 -384 -208 -38 0 -90 33 -165 105 -100 95 -199 172 -255 196 -61 27
-62 29 -49 156 l7 60 86 7 c169 14 208 38 247 152 10 30 21 53 24 51 91 -53
242 -97 330 -97 49 0 60 4 82 28 34 36 48 65 48 97 0 25 3 27 28 20 48 -11
116 -48 157 -85 78 -70 95 -80 144 -80 86 0 147 67 121 134 -11 30 -13 89 -4
99 4 4 19 -2 33 -11 14 -10 50 -29 79 -42 49 -22 93 -66 139 -136 9 -14 14
-16 20 -7 14 21 92 50 218 83 131 34 186 61 234 115 26 31 31 33 31 15 0 -33
-25 -83 -89 -183 -97 -149 -111 -218 -67 -314 29 -62 65 -84 151 -91 53 -4 68
-1 120 26 70 35 111 76 190 187 69 96 97 150 140 269 22 61 38 90 47 87 7 -2
50 -6 96 -9 143 -8 275 27 417 112 50 30 93 55 98 55 4 1 7 -8 7 -18z m-6505
-278 c39 -25 131 -107 205 -181 l135 -134 -210 6 c-115 3 -316 6 -445 6 l-235
1 80 75 c150 142 333 274 379 274 12 0 53 -21 91 -47z m834 -238 c41 -20 81
-72 81 -103 0 -14 -10 -40 -21 -57 l-22 -31 -36 38 c-41 44 -91 60 -146 48
-32 -7 -35 -6 -35 14 0 31 26 63 68 86 45 23 74 25 111 5z m-7023 -218 c-79
-96 -120 -240 -98 -343 37 -176 167 -285 401 -335 93 -19 112 -20 171 -10 82
15 121 38 157 92 20 30 27 53 26 83 l-2 41 24 -28 c73 -83 48 -226 -52 -303
-82 -62 -142 -78 -293 -79 -130 0 -138 1 -221 34 -157 60 -273 170 -315 298
-26 80 -25 205 4 298 33 108 114 220 202 279 36 23 35 21 -4 -27z m5514 -31
c38 -32 70 -62 70 -66 0 -27 -331 -178 -464 -211 -46 -11 -48 -13 -25 -21 64
-25 335 23 494 88 61 24 115 44 120 44 14 -1 65 -47 65 -58 0 -12 -130 -128
-196 -175 -93 -67 -255 -131 -422 -168 l-87 -19 80 4 c92 6 314 60 427 105 42
16 126 60 186 96 61 36 119 65 130 65 10 0 26 -8 36 -19 16 -17 15 -20 -22
-53 -48 -43 -110 -80 -177 -103 -71 -26 -76 -35 -18 -35 63 0 100 13 183 61
85 50 118 57 148 29 12 -11 22 -28 22 -36 0 -9 -33 -53 -73 -98 -103 -114
-140 -167 -251 -363 -53 -95 -111 -186 -128 -204 -27 -26 -83 -59 -101 -59 -3
0 -8 44 -12 98 -9 128 -28 218 -58 279 -42 82 -47 81 -92 -4 -81 -153 -334
-432 -432 -475 -46 -20 -237 -47 -249 -35 -4 3 11 27 32 53 118 140 164 222
164 296 0 47 -15 73 -26 45 -10 -27 -161 -147 -218 -173 -31 -14 -80 -28 -110
-31 l-55 -6 14 54 c8 30 15 87 15 127 0 60 -3 75 -21 93 l-22 22 -16 -32 c-29
-56 -94 -85 -225 -102 -88 -11 -211 2 -235 25 -11 12 -8 16 21 25 62 21 138
125 159 217 14 62 8 75 -21 49 -32 -29 -86 -23 -124 13 -28 27 -42 31 -159 47
-274 36 -467 96 -543 169 -50 48 -62 94 -21 81 62 -19 166 -17 235 4 115 35
179 85 260 204 81 119 144 181 201 198 l40 12 46 -51 c46 -51 155 -137 210
-165 166 -84 484 -113 680 -62 157 41 246 80 347 153 51 37 102 82 113 99 11
18 23 31 27 30 4 -1 39 -28 78 -61z m2634 -4 c46 -50 173 -136 241 -165 174
-73 331 -103 485 -92 276 18 437 82 589 234 35 35 70 61 81 61 62 0 129 -61
223 -202 65 -98 117 -146 200 -182 104 -47 212 -54 300 -21 32 13 21 -41 -18
-79 -72 -73 -270 -138 -515 -171 -168 -22 -165 -21 -204 -55 -40 -36 -82 -39
-120 -9 -25 20 -26 20 -26 2 0 -42 32 -124 72 -183 32 -48 52 -67 87 -83 l45
-20 -30 -16 c-43 -24 -249 -23 -324 2 -61 21 -120 61 -120 82 0 23 -20 28 -41
9 -29 -26 -26 -154 5 -252 8 -23 7 -23 -41 -16 -26 3 -72 15 -101 26 -51 19
-170 106 -221 162 -14 14 -28 26 -33 26 -4 0 -8 -22 -8 -49 0 -67 52 -168 140
-270 l70 -81 -72 0 c-148 1 -220 32 -338 149 -134 133 -275 320 -317 420 l-10
25 -27 -40 c-30 -44 -60 -134 -71 -211 -4 -29 -10 -53 -13 -53 -4 1 -52 13
-107 29 l-100 28 -60 105 c-79 139 -133 214 -222 312 -40 45 -73 84 -73 88 0
4 19 20 42 34 l43 27 50 -27 c136 -75 142 -77 207 -74 l63 3 -64 22 c-67 24
-146 70 -176 103 -18 20 -18 21 7 46 l26 26 108 -64 c60 -36 145 -79 189 -96
151 -58 435 -122 491 -110 11 2 -21 12 -69 22 -173 34 -360 111 -461 189 -59
46 -166 148 -166 159 0 4 15 19 34 33 l33 25 81 -34 c111 -48 199 -74 306 -91
105 -17 232 -20 241 -5 3 6 -3 10 -15 10 -11 0 -78 21 -148 46 -188 68 -350
152 -336 175 3 5 37 37 77 71 48 41 72 57 75 47 3 -8 19 -29 36 -47z m5460
-14 c115 -116 161 -237 154 -404 -3 -82 -8 -100 -42 -168 -30 -62 -50 -87
-104 -132 -129 -107 -232 -144 -401 -144 -180 0 -287 41 -354 137 -40 56 -49
151 -19 209 34 66 47 70 47 16 0 -36 7 -56 29 -85 63 -83 179 -105 345 -67
166 37 289 119 349 234 24 46 27 61 27 156 -1 122 -19 182 -85 268 -22 28 -35
52 -29 52 6 0 44 -33 83 -72z m-7423 42 c86 -16 140 -48 168 -98 22 -41 23
-47 11 -104 -17 -79 -46 -119 -96 -137 -40 -14 -41 -14 -105 29 -117 79 -418
294 -415 297 5 5 215 20 302 22 45 0 106 -4 135 -9z m-5726 -324 c8 -90 -1
-159 -25 -189 -38 -46 -209 -16 -240 42 -12 24 -13 71 0 91 8 12 16 13 56 2
26 -7 48 -11 49 -10 2 2 17 20 34 41 30 39 97 97 111 97 4 0 11 -33 15 -74z
m12739 -27 c14 -17 29 -37 34 -45 7 -12 13 -12 50 2 52 21 72 8 72 -45 0 -63
-74 -111 -170 -111 -73 0 -87 11 -100 76 -11 51 -6 185 7 207 6 9 73 -43 107
-84z m-10951 -153 c69 -29 89 -86 46 -132 -51 -55 -129 -70 -192 -38 -50 26
-167 106 -167 115 0 8 93 45 149 59 56 13 129 11 164 -4z m9274 -33 c46 -14
82 -31 80 -37 -5 -18 -155 -115 -197 -127 -51 -15 -105 -1 -149 40 -40 38 -41
77 -2 115 55 53 126 56 268 9z m-4980 -104 c26 -6 95 -16 152 -23 58 -6 106
-16 108 -22 2 -5 -42 -39 -97 -74 -55 -36 -100 -68 -100 -72 0 -33 299 70 325
112 13 21 70 42 137 52 58 8 74 7 94 -7 13 -8 24 -19 24 -23 0 -20 -162 -118
-331 -202 -241 -120 -245 -128 -35 -85 159 32 209 50 341 124 61 33 111 56
113 51 10 -28 -25 -84 -87 -142 -60 -57 -215 -158 -313 -204 -39 -18 -50 -34
-24 -34 32 0 327 90 392 120 l69 31 -35 -36 c-63 -66 -193 -157 -285 -201 -76
-36 -305 -114 -336 -114 -5 0 -9 18 -9 39 0 53 -34 159 -75 234 -43 81 -88
225 -115 367 -11 63 -22 122 -24 131 -3 15 0 16 29 3 18 -7 55 -19 82 -25z
m1000 -97 c54 -54 83 -94 114 -157 23 -47 40 -88 37 -91 -4 -3 -34 0 -67 7
l-62 12 -54 84 c-66 100 -110 186 -120 231 l-7 34 44 -24 c23 -12 75 -56 115
-96z m-7831 7 c53 -119 138 -207 248 -260 90 -43 153 -52 306 -46 146 6 224
19 282 48 l38 19 -11 -27 c-32 -85 -95 -134 -207 -159 -96 -21 -219 -14 -353
20 -125 32 -170 55 -251 133 -85 83 -113 143 -104 225 6 60 16 108 22 108 1 0
15 -28 30 -61z m14173 -39 c14 -104 -4 -149 -97 -240 -43 -42 -98 -86 -124
-98 -84 -39 -198 -63 -319 -69 -163 -8 -259 17 -320 84 -28 30 -63 92 -56 99
2 2 18 -3 35 -11 43 -22 151 -43 262 -51 164 -11 302 22 402 97 64 47 140 144
170 217 12 29 25 49 30 44 4 -4 12 -37 17 -72z m-5639 -378 c-3 -1 -24 4 -46
11 -42 15 -45 27 -22 86 9 25 10 24 41 -34 18 -33 30 -61 27 -63z m-536 64
c33 -13 112 -49 175 -80 95 -48 111 -60 100 -71 -8 -7 -78 -60 -156 -117 -193
-142 -250 -208 -519 -603 -168 -246 -179 -262 -209 -281 -23 -15 -28 -14 -79
9 -71 33 -121 67 -283 195 l-133 103 -82 -59 c-203 -145 -282 -177 -443 -177
l-110 0 -13 75 c-8 45 -12 119 -9 187 l4 113 -41 -7 c-22 -4 -77 -7 -121 -7
-66 -1 -89 3 -130 24 -27 14 -51 30 -52 36 -13 41 211 275 357 373 52 35 174
103 272 152 l177 89 35 -73 c67 -138 81 -250 41 -329 -8 -17 -13 -33 -11 -36
9 -9 264 51 381 89 227 73 419 184 595 343 l95 86 49 -6 c26 -3 76 -15 110
-28z m631 -229 c34 -17 32 -18 -57 -35 -77 -15 -170 -53 -210 -88 -48 -42 -95
-100 -374 -464 -307 -402 -552 -710 -565 -710 -21 0 -279 136 -411 217 l-140
86 -152 -77 c-171 -87 -240 -107 -305 -87 -44 13 -83 60 -96 114 -7 27 -7 27
42 27 75 0 239 60 406 150 82 44 151 80 154 80 3 0 46 -31 96 -69 149 -111
382 -251 418 -251 8 0 51 63 96 139 151 254 420 610 558 737 138 129 264 216
354 245 39 13 152 4 186 -14z m158 -199 c46 -117 87 -311 111 -531 l12 -116
-25 5 c-57 12 -128 37 -182 64 -149 76 -409 278 -409 319 0 28 114 145 191
197 72 48 231 124 260 124 11 0 25 -21 42 -62z m-236 -610 c203 -119 254 -138
384 -138 l101 0 -7 31 c-17 77 -33 184 -29 191 3 4 192 8 420 8 l414 0 0 -352
c0 -194 5 -1124 10 -2067 5 -943 8 -1717 6 -1719 -3 -2 -4502 3999 -4626 4114
-12 12 55 14 431 14 l445 0 -4 -59 c-8 -115 79 -314 177 -402 79 -72 111 -83
217 -74 79 6 94 12 241 86 l157 79 79 -60 c108 -83 321 -193 424 -219 73 -19
87 -20 121 -8 85 29 211 161 417 437 76 102 147 195 158 208 19 21 28 22 165
22 l144 0 155 -92z m-5737 -69 l34 -21 -39 -21 c-153 -77 -256 -263 -210 -379
10 -25 -30 -24 -73 2 -75 46 -93 179 -39 285 35 70 82 108 168 139 62 21 118
20 159 -5z m8625 -4 c72 -19 142 -63 172 -107 85 -127 66 -288 -40 -332 -26
-11 -49 -17 -52 -14 -3 2 0 19 6 37 34 98 -71 286 -196 352 -25 13 -44 28 -42
34 3 11 66 45 82 45 6 0 38 -7 70 -15z m-6786 -187 c5 -18 13 -49 16 -69 7
-36 6 -36 -39 -49 -45 -12 -46 -12 -85 22 -21 20 -46 40 -56 45 -25 14 -11 31
49 59 73 34 102 32 115 -8z m149 7 c28 -13 52 -27 52 -31 0 -10 -61 -104 -68
-104 -3 0 -23 8 -44 17 -33 15 -38 21 -38 49 0 18 -4 44 -9 57 -6 14 -7 28 -4
31 13 13 60 5 111 -19z m253 5 c-2 -8 -6 -36 -8 -61 -5 -42 -8 -48 -45 -64
-22 -9 -40 -15 -42 -14 -15 24 -37 91 -33 103 15 39 138 73 128 36z m177 -16
c39 -23 55 -44 33 -44 -6 0 -31 -18 -56 -40 -50 -44 -57 -45 -104 -29 -32 11
-33 13 -26 57 4 24 12 56 18 69 10 22 15 24 52 18 22 -3 59 -17 83 -31z m-323
-97 c23 -45 24 -48 7 -67 -9 -12 -22 -35 -28 -53 l-12 -32 -12 30 c-6 17 -20
40 -31 51 l-21 22 34 50 c18 28 34 49 35 48 2 -1 14 -23 28 -49z m-415 8 c14
-7 37 -24 52 -38 l27 -25 -21 -39 -21 -38 -86 1 c-96 1 -92 -4 -70 81 21 79
50 93 119 58z m844 6 c21 -24 45 -86 46 -121 0 -25 -1 -25 -84 -25 l-83 0 -23
39 -23 40 29 24 c26 21 100 61 115 62 3 0 14 -9 23 -19z m-557 -85 c27 -29 33
-44 33 -80 0 -54 -33 -99 -85 -116 -73 -24 -155 34 -155 111 0 83 51 133 130
125 35 -3 51 -11 77 -40z m327 29 c67 -32 88 -127 41 -184 -14 -16 -41 -35
-60 -41 -73 -24 -155 34 -155 111 0 53 22 92 62 112 41 21 71 21 112 2z m-568
-150 c14 -39 13 -40 -13 -60 -15 -11 -44 -35 -65 -54 -45 -40 -58 -34 -82 36
-27 78 -23 90 32 107 26 8 62 14 80 13 30 -2 36 -7 48 -42z m814 22 c14 -7 26
-22 28 -35 3 -21 -41 -132 -53 -132 -3 0 -30 20 -61 45 -30 25 -60 45 -65 45
-11 0 -7 27 11 76 10 25 13 26 63 20 28 -4 63 -13 77 -19z m-461 -49 c6 -7 21
-26 34 -42 23 -28 23 -33 12 -75 -16 -62 -42 -111 -59 -111 -19 0 -47 45 -67
110 -16 54 -16 56 4 85 33 47 56 57 76 33z m-279 -65 c26 -15 30 -22 26 -47
-4 -16 -6 -47 -6 -69 l0 -40 -34 6 c-52 8 -126 44 -126 60 0 19 78 107 95 107
7 0 27 -8 45 -17z m619 -30 c23 -27 41 -54 41 -61 0 -15 -76 -51 -126 -59 -33
-5 -34 -5 -34 28 0 19 -3 50 -6 69 -5 31 -2 37 23 52 44 26 59 21 102 -29z
m-457 -44 c17 -69 17 -69 -53 -72 l-44 -2 -3 62 -3 62 33 4 c18 2 38 5 44 5 6
1 18 -25 26 -59z m276 51 c20 0 22 -5 22 -52 0 -73 -7 -81 -64 -73 -25 4 -48
10 -50 14 -4 5 6 57 20 110 3 8 12 11 27 7 12 -3 32 -6 45 -6z m416 -150 c111
-115 161 -183 203 -279 33 -74 84 -223 78 -229 -14 -15 -267 228 -370 355 -46
58 -65 69 -65 39 0 -16 165 -209 243 -285 31 -30 54 -58 51 -63 -23 -36 -153
47 -286 184 -76 78 -99 97 -104 84 -11 -28 101 -146 246 -258 l35 -28 -75 0
c-106 1 -155 15 -225 65 -125 89 -196 203 -203 326 l-4 66 91 6 c106 7 176 34
231 89 19 19 38 36 41 37 4 0 54 -49 113 -109z m-647 -12 c11 -13 29 -39 38
-57 l18 -35 17 35 c10 18 30 45 44 58 l26 24 0 -56 c0 -128 44 -237 136 -336
66 -71 146 -114 248 -133 58 -11 70 -17 82 -40 8 -15 14 -31 14 -36 0 -15
-121 -71 -180 -83 -51 -11 -124 -8 -227 7 -51 8 -60 -11 -13 -27 22 -8 30 -17
30 -35 0 -14 7 -38 15 -54 15 -29 15 -29 -41 -77 -31 -26 -76 -75 -100 -107
-35 -48 -41 -62 -33 -78 7 -14 16 -17 32 -12 24 8 25 8 83 -2 37 -6 42 -4 65
27 14 19 38 56 54 82 l27 48 -32 90 c-18 50 -30 92 -29 94 2 2 50 5 107 6 99
3 104 2 129 -24 l27 -26 -40 -49 c-21 -27 -63 -78 -92 -112 -88 -104 -89 -130
-3 -147 25 -5 46 -13 48 -19 9 -26 -252 -34 -331 -10 -40 12 -54 12 -99 0 -99
-26 -177 -16 -177 24 0 12 11 13 58 8 89 -10 103 -1 152 99 l43 87 -18 77
c-17 74 -17 79 0 115 l18 37 -111 112 c-88 91 -118 129 -150 193 -46 91 -78
193 -87 278 l-7 58 59 -6 c37 -4 78 -1 113 8 30 7 58 14 61 15 3 1 15 -9 26
-21z m888 -515 l54 -38 1 -124 0 -124 -26 24 c-33 31 -103 137 -143 217 -31
62 -31 62 -9 62 13 0 30 5 38 10 22 15 27 13 85 -27z m-156 -45 c17 -29 28
-54 26 -56 -10 -11 -125 80 -125 99 0 5 16 9 35 9 31 0 37 -5 64 -52z m-16
-76 c31 -19 57 -38 57 -42 0 -5 -12 -18 -26 -29 -34 -27 -104 -27 -160 -2 -57
26 -60 35 -14 56 22 10 47 26 56 37 10 10 20 17 23 16 3 -2 32 -18 64 -36z
m132 -157 c9 -67 -1 -139 -20 -155 -27 -23 -63 0 -154 97 -50 53 -88 99 -86
101 2 2 18 -1 36 -7 62 -21 98 -14 138 27 l36 38 22 -23 c14 -14 24 -42 28
-78z m881 -374 c24 -11 44 -26 44 -34 0 -7 -14 -34 -30 -60 l-31 -46 -42 19
c-41 18 -42 21 -48 77 -4 32 -5 62 -2 67 7 11 54 1 109 -23z m-147 -25 c18
-73 15 -84 -26 -101 -35 -15 -39 -15 -63 5 -14 11 -42 33 -63 49 l-38 29 30
21 c40 29 70 40 112 40 35 1 37 -1 48 -43z m396 27 c-3 -10 -9 -38 -12 -63 -5
-41 -9 -47 -43 -62 l-38 -16 -21 48 c-12 27 -21 51 -21 54 0 3 17 17 37 31 45
30 109 35 98 8z m174 -14 l53 -31 -30 -21 c-16 -12 -45 -34 -64 -50 -33 -26
-37 -26 -74 -13 -36 12 -39 16 -36 47 2 19 8 49 13 67 9 28 15 32 47 32 23 0
58 -12 91 -31z m-521 -1943 c1128 -1022 2052 -1861 2052 -1865 0 -3 -322 -155
-716 -338 l-715 -332 -362 176 c-705 342 -1341 638 -1723 803 -206 89 -271
122 -353 183 -125 93 -246 243 -291 364 -57 153 -55 113 -53 1068 0 484 4
1106 8 1383 l7 503 47 -43 c25 -24 970 -879 2099 -1902z m203 1844 c15 -28 23
-50 17 -50 -5 0 -18 -21 -30 -47 l-21 -47 -18 35 c-10 20 -24 41 -33 48 -13
11 -11 19 17 61 18 27 34 49 37 49 3 1 17 -22 31 -49z m-423 10 c20 -10 48
-28 62 -39 l25 -20 -22 -38 -22 -38 -87 -3 -87 -3 7 42 c4 22 16 58 26 80 23
45 42 49 98 19z m855 2 c19 -20 32 -54 41 -104 l7 -38 -89 0 -89 0 -18 39 c-9
22 -14 44 -10 50 9 16 107 71 126 71 9 0 23 -8 32 -18z m-574 -67 c87 -74 47
-202 -68 -213 -45 -4 -52 -1 -85 29 -88 81 -39 209 81 209 30 0 50 -7 72 -25z
m365 -5 c83 -73 40 -197 -72 -208 -44 -4 -52 -1 -85 28 -89 78 -39 210 80 210
33 0 50 -7 77 -30z m-593 -134 c15 -43 15 -45 -5 -54 -12 -5 -42 -28 -68 -51
l-47 -42 -15 23 c-17 26 -46 104 -46 123 0 19 68 44 120 44 44 1 45 0 61 -43z
m809 26 c30 -15 35 -21 32 -47 -5 -38 -36 -110 -52 -120 -8 -5 -16 -1 -21 8
-7 11 -77 67 -117 93 -1 1 2 12 7 25 5 13 12 32 15 42 7 23 89 23 136 -1z
m-430 -83 c31 -40 32 -42 20 -83 -42 -142 -86 -139 -130 10 -11 37 -10 44 11
77 32 49 57 48 99 -4z m-309 -31 c26 -16 37 -28 33 -38 -3 -8 -8 -39 -11 -68
-6 -52 -7 -53 -32 -47 -42 10 -131 53 -131 63 0 10 88 112 96 112 3 0 23 -10
45 -22z m614 -20 c63 -74 63 -75 1 -104 -30 -14 -67 -26 -82 -27 -23 -2 -26 2
-30 38 -2 22 -6 52 -9 66 -5 22 -1 30 27 47 18 11 38 21 45 21 6 1 28 -18 48
-41z m-452 -35 c3 -21 9 -48 12 -59 6 -20 1 -23 -46 -33 -28 -6 -53 -10 -55
-8 -2 2 -6 29 -10 61 -8 66 -1 76 57 76 34 0 37 -2 42 -37z m288 26 c18 -9 20
-17 14 -62 -4 -29 -10 -56 -15 -60 -4 -4 -28 -3 -54 4 -44 11 -47 14 -42 38 3
14 9 41 12 59 6 27 11 32 36 32 16 0 38 -5 49 -11z m405 -141 c108 -111 145
-160 192 -253 32 -65 92 -228 92 -252 0 -33 -188 139 -323 297 -50 58 -94 106
-98 108 -4 2 -10 -2 -14 -8 -9 -14 84 -129 204 -253 73 -75 92 -100 81 -107
-35 -22 -143 51 -273 183 -71 72 -101 97 -109 89 -19 -19 146 -192 247 -258
36 -24 31 -34 -17 -34 -75 0 -172 20 -213 45 -65 38 -158 129 -187 181 -38 71
-61 157 -53 203 l6 39 92 4 c104 4 159 25 217 81 19 19 40 35 46 36 6 0 56
-45 110 -101z m-6230 78 c15 -11 19 -26 18 -68 -2 -75 -10 -186 -18 -233 l-6
-40 19 40 c11 22 20 48 20 57 1 10 8 36 17 58 22 55 51 61 112 24 85 -53 98
-122 37 -204 -66 -90 -256 -156 -392 -135 l-46 7 28 22 28 22 -13 103 c-23
191 11 305 105 347 39 17 67 17 91 0z m12276 -31 c72 -49 100 -167 79 -329
-13 -98 -9 -122 21 -132 20 -6 20 -7 3 -16 -50 -29 -222 -2 -324 50 -83 42
-145 134 -133 198 6 31 53 77 104 100 l40 18 24 -27 c13 -15 26 -44 29 -65 8
-45 35 -121 46 -127 4 -3 3 10 -2 29 -9 34 -20 153 -23 247 0 26 5 53 13 63
20 24 80 20 123 -9z m-6666 -96 l31 -47 34 46 c19 25 39 47 45 49 8 3 13 -26
16 -90 3 -81 8 -103 37 -161 37 -76 125 -176 185 -211 41 -23 118 -48 187 -59
28 -5 39 -14 52 -41 l16 -34 -76 -38 c-75 -37 -80 -38 -187 -38 -61 0 -128 4
-148 8 -30 6 -38 5 -38 -7 0 -8 14 -19 30 -25 22 -7 30 -16 30 -35 0 -14 5
-37 10 -52 10 -26 7 -32 -58 -93 -74 -70 -127 -142 -120 -163 3 -8 26 -14 64
-15 32 -1 68 -4 79 -5 15 -2 32 15 67 67 26 39 48 80 48 92 0 12 -13 57 -29
101 l-29 79 106 6 c100 6 108 5 129 -15 13 -12 23 -27 23 -33 0 -6 -22 -38
-50 -70 -155 -187 -169 -219 -102 -230 57 -9 87 -24 75 -36 -7 -7 -68 -9 -179
-5 -232 8 -228 8 -324 1 -68 -6 -88 -4 -97 7 -22 26 -1 39 48 30 82 -15 101
-3 153 96 l45 88 -14 55 c-18 67 -18 117 0 149 13 24 10 28 -99 140 -96 98
-119 128 -154 200 -55 115 -71 169 -79 257 -6 72 -5 75 14 69 31 -10 115 -8
148 3 55 18 78 10 111 -40z m-5198 -220 c2 -21 -10 -41 -52 -89 -60 -67 -106
-149 -106 -189 0 -15 -10 -46 -21 -71 -12 -26 -14 -39 -6 -30 8 8 24 40 37 70
55 133 216 290 298 290 11 0 31 -9 46 -21 22 -17 26 -28 26 -72 0 -110 -52
-254 -125 -350 -65 -84 -122 -121 -262 -167 -145 -49 -217 -82 -232 -107 -8
-16 -12 -13 -25 18 -29 70 -40 166 -27 254 22 155 61 234 128 256 85 27 113
48 160 122 57 90 88 118 128 115 24 -2 31 -8 33 -29z m11425 -7 c11 -9 36 -42
55 -72 52 -82 80 -108 141 -131 72 -26 106 -59 131 -126 46 -123 48 -286 6
-388 l-16 -38 -23 20 c-33 31 -89 56 -230 103 -120 39 -133 46 -190 100 -108
101 -174 239 -184 387 l-6 82 32 19 c25 15 40 18 67 12 88 -20 203 -139 270
-279 25 -51 47 -91 50 -89 2 3 -5 25 -16 49 -11 24 -20 56 -20 70 0 38 -47
119 -107 188 -53 59 -59 74 -47 106 8 21 58 14 87 -13z m-10946 -78 c61 -7
103 -45 103 -92 0 -40 -14 -65 -73 -135 -44 -53 -55 -84 -63 -189 -8 -88 12
-162 47 -173 28 -9 24 -22 -13 -42 -44 -22 -152 -23 -194 0 -36 19 -104 94
-104 114 0 8 22 60 49 116 54 111 76 196 87 329 l7 86 56 -4 c31 -3 75 -7 98
-10z m10541 -111 c15 -142 32 -205 89 -320 l47 -95 -21 -37 c-49 -87 -168
-125 -268 -86 -51 19 -55 26 -21 48 37 25 50 77 42 175 -7 98 -27 147 -87 214
-50 57 -63 118 -32 157 23 28 97 49 179 50 l60 1 12 -107z m-4958 -66 l55 -43
0 -112 c0 -67 -4 -113 -10 -114 -17 -3 -99 107 -149 201 l-47 91 35 0 c19 0
38 5 41 10 9 15 16 12 75 -33z m-157 -42 c15 -31 27 -58 27 -61 0 -8 -60 35
-97 69 -37 35 -35 47 11 47 29 0 34 -5 59 -55z m-13 -82 l61 -36 -24 -24 c-38
-38 -93 -41 -164 -8 -52 24 -56 28 -39 38 10 7 35 24 55 39 20 15 39 27 43 27
4 1 34 -15 68 -36z m130 -193 c0 -90 -15 -130 -48 -130 -16 0 -212 194 -212
210 0 6 11 5 26 0 14 -6 45 -10 70 -10 37 0 51 6 82 35 l37 35 22 -28 c20 -23
23 -39 23 -112z m-5900 -110 c14 -52 -2 -116 -38 -148 -15 -13 -106 -59 -202
-101 -96 -43 -186 -83 -200 -90 -39 -21 -110 -93 -110 -113 0 -10 -4 -18 -9
-18 -16 0 -59 58 -71 96 -23 69 33 155 136 207 17 9 86 32 153 52 122 36 253
94 301 134 14 11 26 20 27 21 1 0 7 -18 13 -40z m11143 -4 c59 -44 171 -94
286 -125 133 -37 178 -58 236 -113 72 -65 80 -123 29 -200 -24 -38 -54 -51
-54 -24 0 21 -48 74 -89 100 -20 12 -117 57 -216 101 -99 43 -193 90 -209 105
-33 32 -48 96 -34 146 5 19 11 34 14 34 3 0 20 -11 37 -24z m-4374 -123 c6
-21 11 -52 11 -69 0 -27 -4 -32 -41 -43 -39 -12 -41 -11 -79 23 -21 19 -48 40
-61 46 -22 12 -22 13 -3 27 35 27 98 53 131 53 29 0 33 -4 42 -37z m146 16
c25 -12 47 -25 50 -29 5 -8 -47 -94 -62 -103 -5 -4 -26 1 -45 10 -30 14 -37
22 -42 57 -3 23 -9 51 -12 64 -6 20 -3 22 30 22 20 0 56 -10 81 -21z m251 -1
c-3 -13 -6 -40 -6 -60 0 -34 -4 -39 -42 -58 -23 -11 -43 -20 -44 -20 -2 0 -44
98 -44 104 0 12 88 56 114 56 25 0 28 -3 22 -22z m181 -14 l47 -27 -24 -16
c-14 -9 -41 -31 -62 -49 -36 -32 -38 -33 -77 -21 -37 11 -41 15 -41 46 0 18 7
50 15 70 14 34 17 35 55 30 22 -3 61 -17 87 -33z m-318 -159 c-10 -11 -23 -33
-29 -50 l-12 -30 -18 36 c-10 19 -25 41 -34 48 -13 11 -10 19 21 63 l36 50 27
-49 c26 -46 26 -49 9 -68z m-434 76 c22 -10 50 -30 63 -43 23 -25 23 -26 6
-62 l-18 -36 -88 0 c-67 0 -88 3 -88 13 0 28 29 110 46 128 21 23 29 23 79 0z
m859 0 c17 -19 46 -100 46 -130 0 -14 -13 -16 -86 -14 l-86 2 -20 37 -19 36
22 24 c22 24 95 64 115 64 6 0 19 -9 28 -19z m-569 -73 c86 -79 34 -208 -84
-208 -80 0 -141 88 -111 160 35 84 131 107 195 48z m360 0 c45 -41 55 -90 30
-142 -45 -95 -183 -86 -225 14 -10 24 -10 40 -1 70 27 91 128 120 196 58z
m-597 -115 c5 -16 13 -36 17 -45 5 -12 -1 -21 -22 -32 -15 -8 -46 -31 -68 -51
l-39 -37 -18 22 c-27 34 -50 120 -37 137 15 17 64 31 116 32 36 1 42 -2 51
-26z m793 17 c57 -16 64 -30 44 -89 -9 -28 -25 -61 -35 -73 l-19 -23 -16 22
c-8 12 -37 36 -64 53 l-48 31 16 45 c15 41 18 44 51 44 19 0 51 -5 71 -10z
m-6863 -32 c18 -18 15 -67 -8 -133 -11 -32 -20 -76 -20 -99 0 -39 0 -40 16
-18 21 31 44 28 44 -5 0 -16 20 -71 45 -123 64 -136 59 -180 -23 -180 -40 0
-76 45 -92 115 l-7 30 -12 -28 c-13 -34 -14 -78 -1 -132 5 -22 7 -41 5 -43 -2
-3 -23 5 -47 17 -58 28 -145 105 -180 160 -25 41 -28 53 -28 135 0 144 46 219
175 284 63 33 113 40 133 20z m10068 -37 c130 -62 174 -135 174 -285 0 -102
-21 -147 -102 -221 -56 -50 -143 -103 -153 -93 -3 2 0 20 5 39 15 50 12 122
-5 145 -14 18 -14 18 -15 -6 -1 -39 -42 -103 -73 -114 -17 -6 -37 -6 -54 0
-45 15 -42 58 11 173 25 53 46 109 46 124 0 36 15 41 38 12 l20 -25 5 28 c3
15 -5 60 -19 102 -29 90 -31 135 -6 149 28 17 44 13 128 -28z m-9642 15 c51
-21 51 -32 -1 -57 -70 -34 -146 -114 -162 -170 -7 -26 -10 -56 -6 -68 5 -18 2
-21 -25 -21 -44 0 -90 47 -90 92 0 77 76 183 155 219 48 22 84 24 129 5z
m6026 -37 c33 -41 33 -43 21 -88 -14 -53 -41 -103 -58 -108 -16 -6 -49 48 -70
113 l-16 52 28 36 c15 20 35 36 45 36 9 0 32 -19 50 -41z m3199 12 c73 -38
140 -139 141 -213 0 -50 -34 -89 -80 -91 -31 -2 -35 1 -32 20 10 74 -72 188
-168 234 -28 13 -50 26 -50 29 0 3 12 13 28 22 37 24 114 23 161 -1z m-3474
-89 c-3 -12 -8 -42 -12 -67 -6 -45 -6 -46 -37 -39 -40 9 -112 40 -120 52 -7
11 56 97 81 111 12 6 28 3 55 -12 31 -18 38 -26 33 -45z m600 1 c42 -54 39
-60 -43 -92 -75 -30 -78 -29 -86 33 -3 30 -8 60 -11 68 -7 19 65 57 87 46 10
-5 33 -29 53 -55z m-5655 19 c0 -37 -52 -91 -156 -163 -160 -109 -224 -180
-224 -249 0 -11 -4 -20 -9 -20 -18 0 -60 61 -67 96 -9 46 -1 81 43 192 l36 92
47 0 c47 0 88 10 190 49 71 26 140 28 140 3z m5188 -49 c9 -42 9 -59 1 -64
-13 -8 -90 -21 -94 -17 -2 2 -6 29 -10 60 -7 55 -6 58 16 67 13 5 35 10 49 10
23 1 27 -4 38 -56z m271 51 c34 -7 37 -20 24 -97 -6 -38 -6 -39 -42 -32 -67
12 -73 15 -66 38 3 12 9 39 12 60 6 40 13 43 72 31z m2396 -31 c33 -14 95 -30
138 -37 l79 -12 34 -89 c41 -106 50 -160 35 -207 -14 -43 -58 -88 -65 -67 -2
8 -10 30 -16 51 -16 54 -78 118 -182 188 -136 92 -188 146 -188 195 0 14 8 16
53 10 28 -4 79 -18 112 -32z m-1978 -117 c106 -110 144 -159 187 -243 37 -75
83 -194 92 -238 l7 -38 -32 23 c-73 52 -328 314 -388 399 -2 3 -8 0 -15 -7
-14 -14 65 -114 200 -254 55 -57 91 -102 87 -108 -21 -34 -146 48 -277 182
-85 86 -118 108 -118 79 0 -16 114 -132 193 -197 45 -37 87 -72 92 -77 6 -6
-27 -7 -88 -4 -127 7 -184 33 -282 131 -89 88 -128 174 -123 271 3 53 5 60 23
58 11 -1 55 2 98 7 86 11 156 42 203 91 15 16 31 29 35 29 3 0 51 -47 106
-104z m-634 -26 c14 -16 28 -39 32 -50 9 -29 16 -25 50 27 45 70 55 67 55 -15
0 -133 53 -246 161 -346 62 -57 120 -85 226 -107 50 -10 62 -17 77 -43 17 -29
17 -31 -1 -44 -39 -30 -122 -62 -183 -71 -60 -8 -186 0 -232 15 -15 5 -19 2
-16 -12 2 -10 14 -21 28 -24 18 -4 27 -15 32 -40 4 -19 10 -47 13 -61 6 -24 1
-32 -48 -68 -61 -46 -142 -154 -133 -177 4 -10 18 -14 43 -13 21 0 56 -2 79
-6 l41 -7 46 73 c26 40 47 83 47 95 0 13 -13 59 -29 102 l-29 79 107 6 c100 5
107 4 130 -18 30 -29 25 -43 -44 -125 -86 -102 -115 -142 -121 -167 -8 -31 -6
-33 56 -46 28 -7 52 -16 53 -22 1 -6 -50 -14 -123 -19 -106 -8 -135 -6 -191 8
-62 16 -70 16 -132 0 -44 -11 -82 -14 -112 -9 -40 6 -46 9 -43 28 2 13 9 21
18 19 39 -9 120 -5 134 7 8 7 33 50 56 96 l40 82 -15 59 c-19 73 -19 97 1 135
l15 30 -97 97 c-53 53 -114 123 -135 156 -65 98 -119 264 -119 361 l0 32 53
-8 c36 -6 67 -4 102 5 72 20 81 19 108 -14z m878 -506 l59 -45 0 -115 c0 -65
-4 -114 -10 -114 -17 0 -84 89 -137 183 -57 98 -63 118 -35 111 9 -3 26 2 37
10 11 9 21 16 23 16 2 0 30 -21 63 -46z m-158 -39 c15 -31 27 -58 27 -60 0 -9
-64 34 -97 66 -37 34 -32 49 17 49 21 0 31 -10 53 -55z m-11 -83 c62 -36 66
-52 17 -77 -36 -19 -75 -19 -129 0 -75 27 -76 33 -12 75 31 21 59 38 62 37 3
-1 31 -17 62 -35z m-7171 -77 c56 -47 140 -29 167 35 19 45 38 50 71 19 45
-42 52 -98 21 -158 -36 -72 -142 -111 -240 -90 -105 22 -140 116 -82 222 25
47 27 49 30 24 2 -14 17 -38 33 -52z m9954 36 c10 -46 48 -74 99 -74 55 0 95
24 103 63 7 36 17 31 43 -20 58 -114 -9 -220 -138 -220 -121 0 -212 71 -212
167 0 50 48 108 92 112 3 1 9 -12 13 -28z m-2655 -152 c0 -99 -18 -137 -58
-125 -21 7 -206 195 -198 203 2 2 24 -1 49 -8 58 -14 109 1 140 43 l22 29 22
-28 c20 -24 23 -40 23 -114z m-7320 -205 c51 -19 112 -17 182 7 86 29 93 20
93 -109 0 -161 -26 -193 -161 -200 -48 -3 -96 0 -117 7 -45 15 -93 68 -106
118 -30 105 4 216 59 196 8 -3 31 -12 50 -19z m10067 -22 c53 -3 84 0 122 14
l51 18 23 -22 c31 -32 32 -158 1 -217 -36 -69 -71 -85 -183 -85 -110 0 -136
10 -165 60 -29 49 -31 217 -2 249 18 19 20 19 50 4 17 -9 63 -18 103 -21z
m-10091 -357 c21 -14 62 -32 91 -41 63 -18 100 -10 146 34 28 27 29 27 44 7
35 -46 82 -156 93 -214 12 -66 7 -123 -16 -210 -16 -57 -70 -161 -84 -161 -5
0 -23 12 -40 26 -54 46 -99 156 -110 269 l-6 70 -19 -40 c-9 -22 -26 -89 -36
-150 -31 -180 -51 -222 -119 -249 -66 -26 -71 -24 -53 32 15 47 15 49 -17 122
-69 156 -47 361 52 503 24 33 28 33 74 2z m10307 -42 c57 -95 72 -152 72 -283
0 -107 -2 -120 -33 -194 -32 -77 -32 -81 -18 -123 l15 -43 -28 0 c-36 0 -90
36 -114 78 -11 18 -29 91 -42 165 -13 75 -32 151 -43 173 l-21 39 -1 -62 c0
-100 -69 -265 -121 -293 -32 -17 -42 -8 -82 71 -68 135 -69 284 -2 414 20 38
43 79 51 90 15 20 15 20 29 1 24 -32 68 -56 102 -56 39 0 129 33 163 60 14 11
28 20 32 20 4 0 22 -26 41 -57z"/>
<path d="M8098 14716 c-72 -26 -125 -76 -153 -143 l-13 -30 77 0 c42 0 87 -5
101 -10 24 -10 23 -11 -22 -31 -46 -20 -148 -106 -148 -123 0 -5 35 -9 78 -10
42 -1 88 -4 101 -8 22 -6 19 -9 -33 -36 -32 -17 -65 -42 -74 -57 -15 -25 -15
-28 2 -47 23 -26 76 -41 136 -40 l45 1 -32 11 c-77 29 -65 55 52 108 41 19 74
36 75 39 0 3 -38 22 -85 44 -66 30 -83 42 -74 52 11 14 93 34 139 34 17 0 30
5 30 11 0 40 -67 86 -162 114 -62 18 -71 25 -62 49 12 31 69 56 130 56 40 1
54 3 43 10 -29 17 -113 21 -151 6z"/>
<path d="M7478 14308 c-23 -35 -61 -114 -50 -103 13 14 75 125 69 125 -3 0
-11 -10 -19 -22z"/>
<path d="M7377 14275 c-24 -50 -20 -58 4 -12 11 22 19 41 17 43 -3 2 -12 -12
-21 -31z"/>
<path d="M7308 14285 c-10 -18 -30 -116 -25 -121 7 -7 39 105 34 119 -2 6 -6
7 -9 2z"/>
<path d="M7535 14243 c-52 -65 -62 -81 -31 -53 32 29 70 79 64 85 -2 2 -17
-12 -33 -32z"/>
<path d="M8968 13233 c7 -3 16 -2 19 1 4 3 -2 6 -13 5 -11 0 -14 -3 -6 -6z"/>
<path d="M5391 8169 c-10 -11 -22 -36 -25 -54 -13 -67 30 -116 102 -117 49 0
80 16 92 48 18 46 11 53 -20 22 -27 -26 -36 -30 -68 -25 -67 11 -92 70 -51
121 17 21 18 26 5 26 -8 0 -24 -9 -35 -21z"/>
<path d="M5785 8191 c-52 -22 -76 -90 -51 -140 23 -43 52 -56 124 -52 31 1 72
44 72 75 l0 24 -30 -30 c-27 -26 -36 -30 -68 -25 -70 12 -92 72 -46 126 14 17
24 31 22 30 -1 0 -12 -4 -23 -8z"/>
<path d="M7154 6438 c-46 -22 -59 -107 -24 -151 12 -15 36 -29 55 -33 65 -12
109 11 125 65 l10 34 -28 -26 c-32 -31 -85 -36 -120 -11 -30 21 -30 79 0 111
23 24 17 28 -18 11z"/>
<path d="M7514 6438 c-27 -13 -44 -49 -44 -93 0 -101 158 -131 197 -37 18 43
13 49 -17 17 -28 -29 -83 -34 -118 -9 -30 21 -30 79 0 111 23 24 17 28 -18 11z"/>
<path d="M9038 4804 c-59 -32 -54 -151 7 -174 78 -29 155 9 155 77 0 11 -6 9
-20 -10 -26 -33 -62 -41 -104 -23 -54 23 -58 94 -7 133 22 17 2 15 -31 -3z"/>
<path d="M9398 4804 c-16 -8 -30 -26 -34 -42 -3 -15 -8 -33 -10 -40 -7 -23 25
-78 52 -91 34 -15 79 -14 113 4 30 15 41 33 41 68 0 21 0 21 -16 -1 -47 -67
-154 -37 -154 43 0 7 12 27 26 44 28 34 23 38 -18 15z"/>
<path d="M4391 3784 c-138 -23 -188 -54 -392 -240 -99 -91 -217 -189 -262
-218 -113 -73 -184 -131 -208 -169 -23 -39 -25 -113 -4 -164 9 -20 29 -83 45
-139 17 -57 46 -129 65 -161 39 -67 61 -138 52 -174 -9 -34 -182 -292 -296
-439 -176 -227 -184 -246 -184 -425 1 -197 49 -337 154 -450 80 -85 155 -131
344 -211 149 -64 165 -73 235 -139 145 -136 229 -206 258 -214 35 -10 109 2
153 24 56 29 187 164 215 221 22 46 26 64 22 119 -6 90 -30 114 -171 165 -113
41 -217 94 -217 112 0 5 11 47 25 92 14 44 36 127 48 184 l23 104 75 -94 c261
-327 576 -578 1107 -882 555 -318 830 -420 1462 -545 418 -82 456 -86 785 -86
160 1 349 7 420 14 540 53 1186 187 1530 318 181 69 468 228 770 428 337 223
452 320 727 614 215 229 193 219 248 111 30 -60 80 -209 80 -241 0 -16 -21
-30 -95 -64 -52 -24 -113 -50 -137 -57 -126 -38 -185 -190 -122 -317 56 -111
188 -206 306 -218 55 -5 56 -5 102 37 26 24 62 64 81 90 30 41 64 63 262 175
126 70 260 151 298 179 76 57 253 242 278 292 22 44 40 192 35 295 -6 122 -49
209 -158 318 -89 90 -273 309 -328 391 -35 52 -37 59 -36 130 1 99 45 213 119
311 30 40 60 87 66 107 19 57 6 153 -29 214 -27 49 -40 59 -174 138 -109 64
-178 114 -276 199 -143 125 -241 194 -342 244 -55 27 -76 32 -136 31 -59 0
-82 -5 -136 -32 -53 -26 -72 -42 -103 -89 -67 -100 -96 -155 -142 -263 -85
-201 -148 -299 -287 -448 -74 -80 -105 -123 -141 -193 -25 -50 -45 -104 -45
-120 0 -35 50 -138 92 -192 17 -21 54 -57 84 -81 l53 -44 -125 -122 c-476
-459 -1085 -830 -1620 -985 -140 -40 -225 -53 -819 -119 -416 -46 -654 -23
-1130 113 -344 98 -512 159 -716 262 -322 161 -552 333 -888 665 l-204 201 75
75 c93 93 148 180 148 234 0 49 -46 139 -116 230 -30 38 -110 151 -179 251
-97 141 -130 198 -146 250 -34 110 -95 217 -154 271 -50 45 -179 124 -220 135
-11 2 -58 -2 -104 -9z m134 -206 c60 -15 121 -54 145 -94 13 -19 42 -83 65
-140 66 -161 96 -204 257 -365 120 -119 153 -158 178 -210 50 -106 38 -193
-34 -257 -40 -35 -107 -72 -130 -72 -31 0 -250 268 -361 440 -103 160 -209
415 -264 630 l-19 75 22 6 c23 7 80 2 141 -13z m6787 6 c9 -8 -47 -212 -89
-324 -100 -272 -300 -586 -496 -779 l-55 -53 -50 27 c-106 57 -149 125 -139
216 10 86 50 144 206 304 162 165 199 218 261 375 60 152 90 186 194 222 48
16 156 25 168 12z m-6993 -379 c164 -381 522 -871 885 -1210 648 -604 1347
-942 2196 -1060 155 -22 638 -31 807 -16 1004 91 1909 605 2632 1495 253 312
513 728 607 973 18 48 31 70 38 64 6 -4 131 -92 278 -195 l267 -186 -32 -77
c-123 -304 -365 -721 -594 -1029 -874 -1170 -2076 -1784 -3493 -1784 -736 0
-1425 157 -2040 465 -450 225 -810 483 -1173 843 -339 335 -600 674 -825 1069
-117 205 -254 525 -237 553 3 5 75 43 159 84 175 84 320 167 392 224 l49 39
21 -76 c11 -42 39 -121 63 -176z m-341 -1906 c46 -48 83 -89 81 -93 -2 -3 29
-21 68 -40 82 -39 221 -127 246 -154 53 -58 -85 -201 -194 -202 -31 0 -40 6
-65 41 -73 106 -218 206 -434 299 -184 80 -207 96 -222 157 -5 18 0 23 41 33
91 23 176 91 221 179 l20 40 77 -87 c42 -48 114 -126 161 -173z m7992 221 c45
-89 130 -157 221 -180 41 -10 46 -15 41 -33 -15 -59 -49 -82 -237 -162 -197
-84 -346 -188 -419 -294 -32 -45 -50 -50 -118 -29 -83 25 -179 146 -146 185
28 35 262 177 303 184 11 3 20 9 20 15 0 6 55 69 122 140 67 71 136 148 155
171 18 23 34 42 35 42 2 1 12 -17 23 -39z"/>
<path d="M11594 3203 c-11 -27 -21 -52 -23 -58 -2 -5 5 -2 16 8 11 9 24 17 30
17 11 0 211 -89 203 -91 -3 0 -75 -19 -160 -42 l-154 -42 -63 -110 c-67 -119
-74 -138 -42 -109 21 19 22 18 106 -26 173 -90 185 -99 180 -126 -7 -40 9 -27
42 35 36 68 39 81 11 56 -18 -17 -23 -15 -137 45 -126 67 -153 86 -153 106 0
23 51 74 74 74 13 0 77 -24 142 -54 108 -49 119 -57 119 -80 -1 -14 2 -26 5
-26 11 0 54 99 47 106 -4 4 -9 -1 -13 -10 -3 -9 -12 -16 -20 -16 -26 0 -224
94 -212 100 7 4 86 26 175 50 90 23 160 46 158 50 -3 4 -62 33 -132 65 -160
71 -176 81 -170 106 10 38 -11 18 -29 -28z"/>
<path d="M4113 3163 c2 -24 -7 -31 -135 -91 -134 -64 -138 -65 -158 -47 -27
24 -25 15 10 -55 33 -64 41 -73 37 -37 -2 18 10 28 63 55 l65 33 32 -68 c18
-37 32 -70 33 -73 0 -7 -107 -60 -122 -60 -6 0 -20 7 -30 17 -26 23 -22 7 17
-67 31 -59 34 -62 35 -34 0 29 5 33 136 93 130 61 136 62 155 45 26 -24 24 -4
-8 61 -29 59 -40 68 -39 33 1 -17 -11 -29 -49 -50 -27 -15 -55 -28 -60 -28 -9
0 -75 119 -75 135 0 9 100 55 119 55 11 0 25 -8 30 -17 6 -11 11 -13 11 -5 0
14 -58 132 -65 132 -2 0 -3 -12 -2 -27z"/>
<path d="M4283 2815 c2 -27 -7 -34 -118 -102 -123 -74 -143 -81 -163 -61 -29
29 -15 -5 44 -102 35 -58 65 -109 66 -114 5 -12 98 2 98 15 0 5 -15 9 -33 9
-18 0 -40 6 -49 13 -18 14 -68 92 -68 106 0 6 28 26 62 46 65 39 63 39 93 -17
18 -33 19 -60 3 -76 -21 -21 5 -13 57 18 l50 30 -32 0 c-27 0 -37 7 -58 40
-14 22 -25 44 -25 49 0 10 109 76 114 70 2 -2 16 -27 32 -56 25 -46 27 -56 17
-83 -6 -16 -8 -30 -4 -30 12 0 51 31 51 41 0 12 -107 197 -126 218 -11 12 -13
10 -11 -14z"/>
<path d="M11286 2605 c-36 -58 -66 -110 -66 -116 0 -8 17 -9 55 -5 30 3 79 9
109 12 l55 6 32 -101 c17 -56 36 -100 41 -99 5 2 40 53 78 113 l70 110 -41 38
c-22 22 -43 36 -47 33 -3 -4 0 -12 6 -18 22 -22 13 -61 -30 -131 l-42 -70 -27
81 c-15 45 -30 85 -33 90 -3 4 -40 5 -82 0 -42 -4 -79 -7 -81 -5 -2 2 15 32
38 67 39 60 41 62 75 57 19 -3 34 -2 34 2 0 6 -63 41 -74 41 -2 0 -33 -47 -70
-105z"/>
<path d="M4452 2536 c3 -33 -21 -55 -171 -156 -70 -47 -75 -49 -93 -33 -35 32
-27 6 17 -55 49 -67 60 -76 45 -38 -9 26 2 40 69 86 33 23 35 23 45 6 58 -99
139 -112 192 -31 24 36 12 82 -43 162 -60 90 -65 94 -61 59z m72 -132 c7 -24
-25 -71 -58 -83 -29 -11 -71 6 -84 33 -9 21 -5 27 46 64 53 37 58 39 73 24 10
-10 20 -26 23 -38z"/>
<path d="M11108 2346 l-87 -113 28 -27 c35 -34 42 -33 28 3 -9 23 -8 36 3 57
8 14 20 29 27 31 8 3 65 -34 129 -83 107 -82 115 -90 110 -116 -3 -15 -4 -28
-2 -28 5 0 86 108 86 115 0 3 -9 0 -19 -7 -22 -13 -11 -20 -173 102 -48 36
-87 69 -88 73 0 5 13 22 30 38 23 24 35 28 57 24 l28 -6 -30 25 c-16 14 -33
26 -36 26 -3 0 -44 -51 -91 -114z"/>
<path d="M4630 2304 c0 -3 4 -13 10 -23 11 -21 -8 -41 -138 -144 -83 -66 -105
-77 -117 -57 -3 6 -11 10 -16 10 -6 0 11 -27 37 -60 26 -33 48 -60 50 -60 2 0
1 13 -2 28 -5 25 4 35 111 122 105 84 119 92 137 81 35 -22 30 -5 -17 53 -44
53 -55 63 -55 50z"/>
<path d="M4731 2108 c-6 -29 -13 -71 -17 -93 -11 -76 -5 -72 -114 -77 -54 -2
-102 -7 -106 -11 -4 -3 35 -51 86 -107 l92 -100 44 31 c52 35 55 43 14 34 -28
-6 -37 0 -97 58 l-67 65 95 8 94 9 13 75 c8 41 16 77 18 79 3 3 24 -17 49 -45
45 -50 56 -89 33 -112 -7 -7 -8 -12 -2 -12 6 0 23 13 38 29 l28 29 -88 96
c-49 53 -91 96 -95 96 -4 0 -12 -24 -18 -52z"/>
<path d="M10914 2111 c-79 -48 -107 -157 -62 -236 50 -86 162 -128 242 -90 90
43 124 160 72 249 -51 87 -174 125 -252 77z m80 -21 c27 0 110 -66 137 -109
41 -64 36 -112 -15 -153 -61 -50 -202 25 -242 128 -16 42 -16 47 0 80 16 36
68 68 94 59 8 -3 19 -5 26 -5z"/>
<path d="M4946 1901 c-25 -26 -39 -58 -14 -33 19 19 50 14 81 -13 l28 -25
-102 -110 c-56 -61 -106 -110 -111 -110 -5 0 -19 5 -31 11 -12 6 3 -14 33 -45
30 -31 59 -56 64 -56 6 0 5 5 -2 12 -7 7 -12 19 -12 28 0 13 85 112 191 224
10 11 56 -28 64 -55 4 -10 1 -27 -5 -39 -6 -12 -7 -20 -1 -20 10 0 51 48 51
60 0 4 -47 50 -104 103 l-103 96 -27 -28z"/>
<path d="M10630 1821 l-105 -99 24 -26 c31 -33 44 -33 29 -1 -10 23 -8 29 21
58 l32 32 94 -100 c98 -103 116 -135 95 -160 -7 -8 -8 -15 -3 -15 5 0 33 25
63 55 30 30 50 55 44 55 -5 0 -15 -5 -21 -11 -16 -16 -31 -5 -138 111 l-97
105 28 23 c22 20 35 23 67 19 l39 -5 -28 29 c-15 16 -30 29 -33 29 -3 0 -53
-44 -111 -99z"/>
<path d="M10460 1674 c-25 -20 -47 -38 -49 -40 -3 -2 9 -2 25 2 28 5 34 0 97
-82 37 -48 66 -89 63 -91 -2 -2 -70 12 -151 32 -81 19 -153 35 -161 35 -7 0
-28 -13 -46 -30 l-33 -30 33 6 c40 8 48 1 141 -121 72 -94 80 -112 59 -133 -7
-7 -8 -12 -2 -12 15 0 94 60 94 72 0 6 -6 6 -15 -2 -8 -7 -21 -10 -28 -7 -18
7 -151 177 -144 184 3 2 76 -12 162 -32 87 -20 163 -35 171 -33 9 2 -23 51
-86 132 -55 72 -100 135 -100 141 0 6 5 16 12 23 6 6 10 14 7 16 -3 3 -25 -11
-49 -30z"/>
<path d="M5156 1548 c-94 -51 -160 -81 -179 -81 l-31 0 39 -34 c43 -37 61 -43
46 -14 -12 21 -6 29 44 54 30 15 32 15 83 -25 45 -35 51 -44 46 -67 -10 -41
-32 -71 -49 -65 -27 11 -16 -3 35 -46 52 -43 70 -48 51 -12 -8 15 -1 56 34
183 25 90 47 170 50 177 8 23 -20 11 -169 -70z m80 -52 l-18 -65 -44 32 c-24
18 -43 34 -44 37 0 6 114 67 119 63 2 -1 -4 -32 -13 -67z"/>
<path d="M5475 1414 c3 -49 8 -101 11 -116 5 -26 2 -28 -68 -48 -123 -36 -138
-41 -134 -49 3 -4 55 -41 116 -81 l112 -74 33 40 c39 44 44 59 16 44 -34 -18
-63 -11 -128 31 -35 23 -63 43 -63 45 0 2 39 15 86 30 l87 26 -7 85 c-6 69 -5
83 6 77 37 -21 104 -69 111 -78 4 -6 5 -27 2 -46 l-5 -35 25 40 c14 22 25 42
25 45 0 4 -155 107 -218 144 -12 7 -13 -5 -7 -80z"/>
<path d="M10114 1418 c-42 -28 -46 -33 -26 -36 26 -4 26 4 6 -85 -24 -106 -27
-108 -63 -51 -33 53 -38 73 -19 92 7 7 8 12 4 12 -10 0 -126 -70 -126 -75 0
-2 12 -3 28 -2 24 2 34 -8 83 -83 92 -138 106 -167 91 -190 -17 -28 -10 -25
61 20 54 35 58 40 33 38 -26 -3 -35 4 -68 52 -22 30 -35 56 -30 58 5 1 47 -6
93 -16 76 -17 84 -21 82 -41 -2 -12 0 -20 5 -18 42 23 132 81 132 86 0 3 -20
5 -45 3 -58 -5 -245 36 -245 54 0 32 33 152 50 182 24 40 17 40 -46 0z"/>
<path d="M5753 1309 c9 -5 17 -16 17 -24 0 -16 -115 -231 -138 -258 -10 -11
-23 -15 -36 -11 -42 12 1 -17 110 -77 l108 -59 33 32 c18 17 31 33 29 35 -2 2
-20 -4 -39 -13 -35 -17 -37 -17 -92 11 -31 16 -58 33 -61 37 -7 11 56 128 69
128 16 0 87 -43 88 -54 1 -6 0 -19 -1 -30 -3 -27 17 -10 40 34 25 50 25 52 -4
39 -18 -9 -32 -7 -67 11 -24 12 -46 24 -48 26 -6 5 60 114 69 114 11 0 80 -39
103 -59 12 -10 16 -23 12 -38 -3 -13 -2 -23 3 -23 9 0 32 43 32 60 0 9 -217
130 -234 130 -6 0 -3 -5 7 -11z"/>
<path d="M9798 1230 c-65 -34 -79 -48 -39 -42 25 3 31 -3 94 -122 63 -118 80
-166 57 -166 -5 0 -10 -4 -10 -10 0 -5 29 5 65 22 36 18 65 35 65 38 0 3 -12
6 -27 5 -25 0 -34 11 -91 115 -75 139 -81 156 -56 175 31 24 3 16 -58 -15z"/>
<path d="M6053 1149 c27 -16 20 -46 -46 -179 -54 -108 -65 -125 -84 -123 -36
4 -27 -4 37 -37 70 -35 79 -37 55 -11 -17 19 -15 25 47 158 61 129 67 138 92
136 42 -3 30 10 -37 40 -61 27 -99 37 -64 16z"/>
<path d="M9543 1107 c-124 -58 -138 -67 -97 -64 27 2 31 -4 92 -136 62 -136
63 -139 45 -159 -18 -20 -18 -21 6 -13 13 4 70 29 127 56 110 51 110 51 94
114 -7 31 -9 29 -26 -30 -7 -23 -22 -36 -68 -58 -32 -15 -60 -27 -61 -25 -5 5
-65 127 -65 131 0 3 23 14 51 26 48 21 52 22 70 5 29 -26 29 -14 1 46 -25 53
-26 54 -29 24 -3 -25 -12 -34 -49 -52 -24 -12 -47 -22 -50 -22 -6 0 -54 101
-54 116 0 11 95 54 119 54 8 0 23 -7 33 -17 10 -9 18 -11 18 -5 0 21 -23 62
-34 61 -6 0 -61 -24 -123 -52z"/>
<path d="M6206 1081 c-3 -4 8 -52 24 -106 17 -54 30 -101 30 -104 0 -4 -40
-28 -90 -54 -49 -27 -90 -52 -90 -56 0 -8 227 -101 246 -101 13 0 58 79 50 87
-3 4 -15 -2 -26 -12 -22 -20 -52 -15 -148 26 l-47 20 74 39 c41 22 78 43 82
47 5 5 -3 43 -16 86 l-24 78 22 -6 c12 -4 46 -17 75 -30 47 -22 52 -27 52 -56
0 -44 21 -24 23 21 2 33 2 33 -115 81 -65 26 -120 44 -122 40z"/>
<path d="M9237 908 c-16 -207 -19 -308 -11 -308 26 1 279 99 279 109 0 14
-237 279 -251 280 -7 1 -13 -31 -17 -81z m121 -104 c45 -51 82 -94 82 -97 0
-7 -181 -69 -187 -64 -8 8 8 258 16 255 4 -2 44 -44 89 -94z"/>
<path d="M6835 711 c-63 -88 -116 -152 -129 -155 -17 -5 -18 -8 -6 -15 8 -5
35 -12 60 -16 l45 -7 -23 18 -23 19 26 38 c14 20 30 37 35 37 20 0 115 -23
121 -29 4 -3 9 -25 13 -49 6 -38 4 -43 -16 -51 -26 -10 -22 -13 56 -31 53 -12
69 -7 42 13 -12 9 -26 60 -49 189 -18 97 -35 179 -38 183 -4 3 -55 -62 -114
-144z m102 -77 c-1 -2 -26 3 -55 9 l-53 12 42 60 43 59 13 -69 c7 -38 11 -70
10 -71z"/>
<path d="M8646 825 c-65 -14 -121 -27 -125 -30 -6 -7 3 -15 109 -108 46 -39
53 -50 44 -65 -6 -9 -30 -52 -53 -94 -41 -76 -42 -78 -19 -78 30 1 247 46 254
53 3 3 2 29 -4 59 l-9 53 -12 -32 c-7 -18 -22 -35 -34 -39 -24 -8 -151 -33
-154 -30 -1 0 19 37 43 81 l45 80 -23 18 c-53 44 -99 89 -95 94 3 2 35 10 72
16 67 11 67 11 91 -16 14 -17 24 -22 24 -14 0 21 -21 77 -28 76 -4 0 -60 -11
-126 -24z"/>
<path d="M7159 773 l29 -28 -18 -132 c-10 -72 -21 -136 -25 -142 -3 -6 -16
-11 -28 -11 -40 0 -3 -17 51 -23 50 -6 73 5 32 16 -11 3 -20 13 -20 24 1 29
28 215 33 219 2 2 46 -64 97 -146 51 -83 97 -147 100 -143 4 4 15 69 24 143
24 192 23 190 52 190 13 0 24 5 24 10 0 6 -10 10 -22 10 -13 0 -41 3 -63 6
l-40 6 22 -19 c23 -18 23 -19 10 -120 -8 -57 -16 -105 -19 -108 -3 -4 -41 51
-83 120 -43 69 -84 133 -92 141 -8 8 -32 14 -54 14 l-39 0 29 -27z"/>
<path d="M8304 765 c-4 -9 -28 -86 -55 -173 -33 -108 -55 -162 -70 -174 -21
-18 -20 -18 27 -18 27 0 56 5 64 10 12 8 11 10 -7 10 -12 0 -23 6 -26 13 -4
13 11 78 21 88 4 4 35 9 69 13 l63 6 21 -42 c19 -38 20 -43 5 -53 -9 -7 -16
-15 -16 -18 0 -10 123 4 135 14 5 6 3 9 -6 9 -24 0 -40 23 -129 183 -45 81
-84 147 -86 147 -3 0 -7 -7 -10 -15z m43 -144 l31 -59 -50 -6 c-28 -4 -52 -5
-55 -2 -6 6 28 126 36 126 3 0 20 -27 38 -59z"/>
<path d="M7605 586 c-47 -98 -84 -180 -82 -182 2 -3 72 -7 156 -11 107 -4 151
-3 151 5 0 16 -121 345 -131 356 -5 6 -45 -66 -94 -168z m121 -49 l41 -112
-100 -3 c-55 -1 -101 -1 -103 1 -7 7 108 238 115 232 3 -3 24 -57 47 -118z"/>
<path d="M7901 743 l-24 -5 24 -12 c23 -11 24 -17 31 -151 4 -77 5 -146 3
-153 -3 -7 -15 -17 -27 -22 -17 -6 -3 -9 55 -9 42 -1 77 1 77 4 0 3 -11 10
-25 15 -23 9 -25 14 -25 74 l0 64 57 4 c46 4 61 10 80 32 45 53 23 131 -44
157 -24 9 -137 10 -182 2z m155 -31 c16 -10 34 -48 34 -70 0 -32 -38 -72 -69
-72 -25 0 -29 5 -35 38 -3 20 -6 54 -6 75 0 35 2 37 33 37 17 0 37 -4 43 -8z"/>
</g>
</svg>
